<svg width="282" height="60" viewBox="0 0 282 60" fill="none" xmlns="http://www.w3.org/2000/svg">
<g clip-path="url(#clip0_159_2)">
<path fill-rule="evenodd" clip-rule="evenodd" d="M15 15.4092H46.3636V0H0.0180054V15H0V60H15V15.4092Z" fill="#CDB393"/>
<path d="M51 59.7386C51 54.6418 51 51.3484 51 46C54.1348 46 59.5015 46 62.5 46C67.7474 46 72.9267 46 78.1741 46C80.9 46 82.4674 43.0011 82.4674 40.4842C82.4674 38.0302 80.9 35 78.1741 35C71.223 35 64.34 35 57.3889 35C56.1622 35 52.5674 35 51.1363 35C51.1363 29.7774 51.1363 26.4525 51.1363 21.2928C51.8178 21.2299 52.5674 21.0411 53.317 21.0411C61.1541 21.0411 68.9911 20.9152 76.8282 21.1041C88.0045 21.2299 97 29.9761 97 40.4842C97 50.9923 88.0045 59.7386 76.76 59.9274C68.5823 60.0532 60.4044 59.9902 52.2267 59.9274C51.9541 59.9274 51.6133 59.8644 51 59.7386Z" fill="#CDB393"/>
<path d="M94 0C94 5.04148 94 9.89629 94 15C79.7193 15 65.4385 15 51 15C51 10.083 51 5.16597 51 0C65.1229 0 79.4037 0 94 0Z" fill="#CDB393"/>
<path d="M66 15C66 30.0977 66 44.9023 66 60C61.0207 60 56.1038 60 51 60C51 45.0488 51 30.0977 51 15C55.9793 15 60.8341 15 66 15Z" fill="#CDB393"/>
<path d="M113.01 60V39.2727H125.519V41.4993H115.52V47.9766H120.783C122.267 47.9766 123.519 48.2195 124.537 48.7053C125.563 49.1911 126.339 49.8759 126.865 50.7598C127.398 51.6436 127.665 52.6861 127.665 53.8871C127.665 55.0881 127.398 56.1474 126.865 57.065C126.339 57.9826 125.563 58.7012 124.537 59.2207C123.519 59.7402 122.267 60 120.783 60H113.01ZM115.52 57.8139H120.783C121.727 57.8139 122.527 57.625 123.181 57.2472C123.843 56.8626 124.342 56.37 124.679 55.7695C125.023 55.1623 125.195 54.5213 125.195 53.8466C125.195 52.8548 124.814 52.0012 124.052 51.286C123.289 50.5641 122.2 50.2031 120.783 50.2031H115.52V57.8139ZM132.89 60.2834V57.9354H134.185C134.684 57.9354 135.103 57.8375 135.44 57.6419C135.784 57.4462 136.068 57.1932 136.29 56.8828C136.52 56.5724 136.708 56.2486 136.857 55.9112L137.181 55.142L130.015 39.2727H132.728L138.436 52.1463L143.658 39.2727H146.33L139.164 56.6399C138.881 57.2876 138.557 57.8881 138.193 58.4414C137.835 58.9947 137.346 59.44 136.725 59.7773C136.111 60.1147 135.278 60.2834 134.226 60.2834H132.89ZM149.581 60V39.2727H156.585C158.211 39.2727 159.54 39.5662 160.572 40.1532C161.611 40.7335 162.381 41.5195 162.88 42.5114C163.379 43.5032 163.629 44.6097 163.629 45.831C163.629 47.0522 163.379 48.1621 162.88 49.1607C162.387 50.1593 161.625 50.9554 160.593 51.5492C159.56 52.1362 158.238 52.4297 156.625 52.4297H151.605V50.2031H156.544C157.658 50.2031 158.552 50.0108 159.226 49.6262C159.901 49.2417 160.39 48.7221 160.694 48.0676C161.004 47.4064 161.159 46.6609 161.159 45.831C161.159 45.0011 161.004 44.2589 160.694 43.6044C160.39 42.9499 159.898 42.4371 159.216 42.0661C158.535 41.6882 157.631 41.4993 156.504 41.4993H152.091V60H149.581ZM170.182 39.2727V60H167.672V39.2727H170.182ZM175.215 60V39.2727H177.724V48.5028H188.776V39.2727H191.286V60H188.776V50.7294H177.724V60H175.215ZM196.311 60V39.2727H198.821V48.5028H209.873V39.2727H212.383V60H209.873V50.7294H198.821V60H196.311ZM231.496 60H228.986V41.4993H224.573C223.453 41.4993 222.553 41.6713 221.871 42.0154C221.19 42.3528 220.694 42.8319 220.383 43.4526C220.073 44.0733 219.918 44.7986 219.918 45.6286C219.918 46.4585 220.07 47.1737 220.373 47.7741C220.684 48.3679 221.176 48.8267 221.851 49.1506C222.532 49.4744 223.426 49.6364 224.533 49.6364H230.12V51.9034H224.452C222.846 51.9034 221.527 51.6369 220.495 51.1039C219.462 50.5641 218.697 49.8219 218.197 48.8773C217.698 47.9327 217.448 46.8498 217.448 45.6286C217.448 44.4073 217.698 43.3176 218.197 42.3596C218.697 41.4015 219.466 40.6491 220.505 40.1026C221.544 39.5494 222.873 39.2727 224.492 39.2727H231.496V60ZM221.74 50.6889H224.573L219.553 60H216.639L221.74 50.6889Z" fill="#767676"/>
<path d="M130.315 0.0454538V5.0419H119.079V25.5H112.926V0.0454538H130.315ZM133.332 25.5V0.0454538H143.847C145.752 0.0454538 147.397 0.418323 148.781 1.16406C150.173 1.90151 151.246 2.93312 152 4.25888C152.754 5.57635 153.131 7.10926 153.131 8.8576C153.131 10.6142 152.746 12.1513 151.975 13.4688C151.213 14.7779 150.123 15.793 148.706 16.5138C147.29 17.2347 145.607 17.5952 143.66 17.5952H137.172V12.7479H142.517C143.445 12.7479 144.22 12.5863 144.841 12.2631C145.471 11.94 145.947 11.4884 146.27 10.9084C146.593 10.3201 146.755 9.63648 146.755 8.8576C146.755 8.07043 146.593 7.39098 146.27 6.81925C145.947 6.23923 145.471 5.79179 144.841 5.47692C144.211 5.16205 143.437 5.00462 142.517 5.00462H139.484V25.5H133.332ZM158.594 25.5H151.981L160.57 0.0454538H168.761L177.349 25.5H170.737L164.758 6.45881H164.56L158.594 25.5ZM157.711 15.4822H171.532V20.1555H157.711V15.4822ZM180.09 25.5V0.0454538H186.242V10.2621H196.272V0.0454538H202.412V25.5H196.272V15.271H186.242V25.5H180.09ZM205.165 31.6275V20.7024H206.918C207.506 20.3047 208.044 19.7495 208.533 19.0369C209.022 18.3161 209.441 17.3052 209.789 16.0043C210.137 14.6951 210.385 12.9674 210.534 10.8214L211.33 0.0454538H228.743V20.7024H231.477V31.6151H225.561V25.5H211.081V31.6275H205.165ZM213.977 20.7024H222.827V5.0419H216.848L216.451 10.8214C216.343 12.4371 216.169 13.8623 215.929 15.0969C215.688 16.3316 215.402 17.4087 215.071 18.3285C214.739 19.2399 214.375 20.0312 213.977 20.7024Z" fill="#FFFEFE"/>
</g>
<defs>
<clipPath id="clip0_159_2">
<rect width="282" height="60" fill="white"/>
</clipPath>
</defs>
</svg>
