<svg width="282" height="60" viewBox="0 0 282 60" fill="none" xmlns="http://www.w3.org/2000/svg">
<path d="M0 59.7355C0 54.5778 0 49.6112 0 44.1989C2.90846 44.1989 5.69046 44.1989 8.47247 44.1989C13.341 44.1989 18.1463 44.1989 23.0148 44.1989C25.5439 44.1989 26.9981 42.798 26.9981 40.251C26.9981 37.7677 25.5439 36.3669 23.0148 36.3669C16.5656 36.3669 10.1796 36.3669 3.73042 36.3669C2.59232 36.3669 1.45423 36.3669 0.126455 36.3669C0.126455 31.0819 0.126455 26.0516 0.126455 20.8303C0.758729 20.7666 1.45423 20.5756 2.14973 20.5756C9.42088 20.5756 16.692 20.4482 23.9632 20.6393C34.3325 20.7666 42.6785 29.6174 42.6785 40.251C42.6785 50.8847 34.3325 59.7355 23.9 59.9265C16.3127 60.0538 8.72538 59.9901 1.13809 59.9265C0.885183 59.9265 0.569046 59.8628 0 59.7355Z" fill="#CDB393"/>
<path d="M91.3636 15.4092C75.8097 15.4092 60.5087 15.4092 45.018 15.4092C45.018 10.2516 45.018 5.22131 45.018 0C60.3822 0 75.8097 0 91.3636 0C91.3636 5.03029 91.3636 10.0606 91.3636 15.4092Z" fill="#CDB393"/>
<path d="M75.6199 20.6393C75.6199 33.7562 75.6199 46.6185 75.6199 59.7354C70.5617 59.7354 65.5668 59.7354 60.3821 59.7354C60.3821 46.7458 60.3821 33.7562 60.3821 20.6393C65.4403 20.6393 70.3721 20.6393 75.6199 20.6393Z" fill="#CDB393"/>
<path d="M34.5854 0C34.5854 5.15764 34.5854 10.1243 34.5854 15.3456C23.1413 15.3456 11.6971 15.3456 0.12652 15.3456C0.12652 10.3153 0.12652 5.28499 0.12652 0C11.4442 0 22.8884 0 34.5854 0Z" fill="#CDB393"/>
<path d="M114 0.413043H133.679V5.57609H119.752V10.4293H126.716C129.491 10.4293 131.661 11.2554 133.275 12.9592C134.89 14.663 135.647 16.7283 135.647 19.2065C135.647 21.6848 134.839 23.75 133.275 25.4538C131.711 27.1576 129.491 27.9837 126.716 27.9837H114V0.413043ZM125.959 15.644H119.752V22.8207H125.959C127.069 22.8207 128.028 22.5109 128.683 21.8397C129.39 21.1685 129.794 20.2908 129.794 19.2582C129.794 18.1739 129.44 17.2962 128.683 16.6766C128.028 15.9538 127.119 15.644 125.959 15.644ZM147.908 28.5C146.697 28.5 145.537 28.3451 144.376 27.9837C143.266 27.6223 142.408 27.106 141.803 26.538L143.972 21.8397C145.133 22.8207 146.294 23.337 147.454 23.337C148.413 23.337 149.17 23.1304 149.725 22.7174C150.28 22.2527 150.835 21.5299 151.39 20.4973L141.45 0.516304H147.959L154.569 15.0761L161.28 0.464675H167.789L156.688 22.7174C155.78 24.5761 154.619 26.0217 153.257 27.0027C151.894 27.9837 150.128 28.5 147.908 28.5ZM181.06 27.9837H175.307V0.413043H187.922C190.748 0.413043 192.968 1.29076 194.532 2.99456C196.147 4.69837 196.954 6.76359 196.954 9.29348C196.954 11.8234 196.147 13.8886 194.532 15.5924C192.917 17.2962 190.697 18.1739 187.922 18.1739H181.06V27.9837ZM187.165 13.0109C188.326 13.0109 189.284 12.7011 189.991 12.0299C190.748 11.3587 191.101 10.4293 191.101 9.29348C191.101 8.15761 190.748 7.27989 189.991 6.60869C189.284 5.9375 188.326 5.57609 187.165 5.57609H181.06V13.0109H187.165ZM218.298 28.5C214.211 28.5 210.881 27.1576 208.206 24.4728C205.583 21.788 204.271 18.3804 204.271 14.25C204.271 10.1196 205.583 6.71196 208.206 4.02717C210.881 1.34239 214.211 0 218.298 0C222.385 0 225.766 1.34239 228.39 4.02717C231.064 6.71196 232.376 10.1196 232.376 14.25C232.376 18.3804 231.064 21.8397 228.39 24.4728C225.766 27.1576 222.385 28.5 218.298 28.5ZM212.395 20.7038C213.908 22.4076 215.876 23.2853 218.349 23.2853C220.821 23.2853 222.789 22.4076 224.303 20.7038C225.817 19 226.573 16.8315 226.573 14.1984C226.573 11.5652 225.817 9.39674 224.303 7.69294C222.789 5.98913 220.821 5.11141 218.349 5.11141C215.876 5.11141 213.908 5.98913 212.395 7.69294C210.931 9.39674 210.174 11.5652 210.174 14.1984C210.174 16.8315 210.881 19 212.395 20.7038ZM256.092 27.9837H241.459V0.413043H255.638C258.11 0.413043 259.977 1.08424 261.339 2.47826C262.702 3.82065 263.408 5.47283 263.408 7.43478C263.408 9.13859 262.954 10.5326 262.096 11.6685C261.188 12.8043 260.128 13.4755 258.766 13.7853C260.229 13.9918 261.44 14.7663 262.45 16.0571C263.459 17.3478 263.963 18.8451 263.963 20.5489C263.963 22.7174 263.257 24.4728 261.894 25.8668C260.482 27.2609 258.564 27.9837 256.092 27.9837ZM254.376 11.462C255.335 11.462 256.092 11.2038 256.697 10.6359C257.303 10.0679 257.555 9.34511 257.555 8.46739C257.555 7.58967 257.252 6.86685 256.647 6.29891C256.092 5.73098 255.335 5.4212 254.376 5.4212H247.211V11.462H254.376ZM254.578 22.9239C255.638 22.9239 256.495 22.6658 257.101 22.0978C257.706 21.5299 258.009 20.7554 258.009 19.7228C258.009 18.7935 257.706 18.0707 257.101 17.4511C256.495 16.8315 255.638 16.5217 254.578 16.5217H247.211V22.9239H254.578V22.9239ZM279 27.9837H273.248V0.413043H279V27.9837Z" fill="white"/>
<path d="M119.859 59.7289H118.206V46.8795H114V45.253H124.115V46.8795H119.859V59.7289ZM140.94 59.7289H132.177V45.253H140.94V46.8795H133.83V51.5422H140.79V53.1687H133.83V58.1566H140.94V59.7289ZM160.77 59.7289H158.767L154.51 53.5482L150.254 59.7289H148.251L153.459 52.3012L148.551 45.253H150.554L154.51 51.0542L158.466 45.253H160.469L155.562 52.3012L160.77 59.7289ZM179.648 59.7289H177.995V53.1145H170.184V59.7289H168.531V45.253H170.184V51.488H177.995V45.253H179.648V59.7289ZM194.77 60C192.817 60 191.215 59.2952 189.963 57.8855C188.711 56.4759 188.11 54.6867 188.11 52.5181C188.11 50.3494 188.711 48.5602 189.963 47.1506C191.215 45.741 192.767 45.0361 194.77 45.0361C196.723 45.0361 198.325 45.741 199.527 47.1506C200.779 48.5602 201.38 50.3494 201.38 52.5181C201.38 54.6867 200.779 56.4759 199.527 57.8855C198.275 59.2952 196.723 60 194.77 60ZM194.77 58.3735C196.222 58.3735 197.424 57.8313 198.325 56.747C199.227 55.6084 199.677 54.1988 199.677 52.5181C199.677 50.7831 199.227 49.3735 198.325 48.2892C197.424 47.2048 196.272 46.6627 194.77 46.6627C193.268 46.6627 192.116 47.2048 191.215 48.2892C190.314 49.3735 189.863 50.7831 189.863 52.5181C189.863 54.1988 190.314 55.6084 191.215 56.747C192.066 57.8313 193.268 58.3735 194.77 58.3735ZM208.24 60V58.3735C208.791 58.3735 209.292 58.2108 209.642 57.9398C209.993 57.6687 210.343 57.0723 210.594 56.2048C210.894 55.3373 211.094 54.0904 211.295 52.5181L212.096 45.253H220.258V59.7289H218.606V46.8795H213.598L212.947 52.6807C212.797 54.253 212.547 55.5 212.246 56.4759C211.946 57.4518 211.595 58.2108 211.195 58.753C210.794 59.241 210.343 59.5663 209.893 59.7289C209.442 59.8916 208.891 60 208.24 60ZM235.381 60C233.428 60 231.825 59.2952 230.573 57.8855C229.322 56.4759 228.721 54.6867 228.721 52.5181C228.721 50.3494 229.322 48.5602 230.573 47.1506C231.825 45.741 233.378 45.0361 235.381 45.0361C237.334 45.0361 238.936 45.741 240.138 47.1506C241.39 48.5602 241.99 50.3494 241.99 52.5181C241.99 54.6867 241.39 56.4759 240.138 57.8855C238.936 59.2952 237.334 60 235.381 60ZM235.381 58.3735C236.833 58.3735 238.035 57.8313 238.936 56.747C239.837 55.6084 240.288 54.1988 240.288 52.5181C240.288 50.7831 239.837 49.3735 238.936 48.2892C238.035 47.2048 236.883 46.6627 235.381 46.6627C233.878 46.6627 232.727 47.2048 231.825 48.2892C230.924 49.3735 230.473 50.7831 230.473 52.5181C230.473 54.1988 230.924 55.6084 231.825 56.747C232.727 57.8313 233.928 58.3735 235.381 58.3735ZM252.206 59.7289H250.553V45.253H259.316V46.8795H252.206V59.7289ZM269.131 59.7289H267.478V45.253H269.131V59.7289ZM279.797 59.7289H278.144V45.253H279.797V59.7289ZM281.7 42.3253C281.9 42.488 282 42.759 282 43.0301C282 43.3012 281.9 43.5181 281.7 43.7349C281.499 43.9518 281.299 44.0602 281.049 44.0602C280.798 44.0602 280.598 43.9518 280.398 43.7349C280.197 43.5181 280.097 43.3012 280.097 43.0301C280.097 42.759 280.197 42.5422 280.398 42.3253C280.598 42.1084 280.798 42 281.049 42C281.299 42 281.499 42.1084 281.7 42.3253ZM277.543 42.3253C277.744 42.488 277.844 42.759 277.844 43.0301C277.844 43.3012 277.744 43.5181 277.543 43.7349C277.393 43.9518 277.143 44.0602 276.892 44.0602C276.642 44.0602 276.392 43.9518 276.241 43.7349C276.041 43.5181 275.941 43.3012 275.941 43.0301C275.941 42.759 276.041 42.5422 276.241 42.3253C276.442 42.1084 276.642 42 276.892 42C277.193 42 277.393 42.1084 277.543 42.3253Z" fill="#767676"/>
</svg>
