<svg width="35" height="35" viewBox="0 0 35 35" fill="none" xmlns="http://www.w3.org/2000/svg">
<path d="M28.6143 23.0159C27.7591 23.0159 26.9467 23.3508 26.3337 23.9566C25.7208 24.5695 25.3787 25.3677 25.3787 26.223C25.3787 27.0782 25.7137 27.8764 26.3337 28.4893C26.9538 29.0951 27.7591 29.4301 28.6143 29.4301C30.3675 29.4301 31.7929 27.9904 31.7929 26.223C31.7929 24.4555 30.3675 23.0159 28.6143 23.0159ZM28.6143 28.0047C27.6308 28.0047 26.8041 27.1922 26.8041 26.223C26.8041 25.2537 27.6308 24.4413 28.6143 24.4413C29.5836 24.4413 30.3675 25.2395 30.3675 26.223C30.3675 27.2065 29.5836 28.0047 28.6143 28.0047ZM29.4411 12.3327C29.3128 12.2116 29.1417 12.1474 28.9636 12.1474H25.3075C24.9155 12.1474 24.5948 12.4681 24.5948 12.8601V18.7041C24.5948 19.0961 24.9155 19.4168 25.3075 19.4168H31.1087C31.5007 19.4168 31.8214 19.0961 31.8214 18.7041V14.7915C31.8214 14.5919 31.7359 14.3995 31.5862 14.2641L29.4411 12.3327ZM30.396 17.9914H26.0202V13.5657H28.6856L30.396 15.1051V17.9914ZM11.2105 23.0159C10.3553 23.0159 9.54286 23.3508 8.92995 23.9566C8.31704 24.5695 7.97495 25.3677 7.97495 26.223C7.97495 27.0782 8.30992 27.8764 8.92995 28.4893C9.54999 29.0951 10.3553 29.4301 11.2105 29.4301C12.9638 29.4301 14.3891 27.9904 14.3891 26.223C14.3891 24.4555 12.9638 23.0159 11.2105 23.0159ZM11.2105 28.0047C10.227 28.0047 9.40033 27.1922 9.40033 26.223C9.40033 25.2537 10.227 24.4413 11.2105 24.4413C12.1798 24.4413 12.9638 25.2395 12.9638 26.223C12.9638 27.2065 12.1798 28.0047 11.2105 28.0047ZM6.45693 23.8925H5.02444V21.9967C5.02444 21.6048 4.70373 21.2841 4.31175 21.2841C3.91977 21.2841 3.59906 21.6048 3.59906 21.9967V24.6052C3.59906 24.9971 3.91977 25.3179 4.31175 25.3179H6.45693C6.84891 25.3179 7.16962 24.9971 7.16962 24.6052C7.16962 24.2132 6.84891 23.8925 6.45693 23.8925ZM10.0703 20.0083C10.0703 19.6164 9.74954 19.2957 9.35756 19.2957H0.712686C0.320709 19.2957 0 19.6164 0 20.0083C0 20.4003 0.320709 20.721 0.712686 20.721H9.35756C9.74954 20.721 10.0703 20.4075 10.0703 20.0083ZM2.15944 17.4356L10.8043 17.4854C11.1963 17.4854 11.517 17.1719 11.5241 16.7799C11.5313 16.3808 11.2105 16.0601 10.8186 16.0601L2.17369 16.0102C2.16656 16.0102 2.16656 16.0102 2.16656 16.0102C1.77459 16.0102 1.45388 16.3238 1.45388 16.7157C1.44675 17.1148 1.76746 17.4356 2.15944 17.4356ZM3.61332 14.2H12.2582C12.6502 14.2 12.9709 13.8793 12.9709 13.4873C12.9709 13.0953 12.6502 12.7746 12.2582 12.7746H3.61332C3.22134 12.7746 2.90063 13.0953 2.90063 13.4873C2.90063 13.8793 3.22134 14.2 3.61332 14.2ZM34.7363 13.2378L29.6335 9.01161C29.5052 8.9047 29.3484 8.84769 29.1774 8.84769H23.1765V6.28202C23.1765 5.89004 22.8558 5.56934 22.4639 5.56934H4.31175C3.91977 5.56934 3.59906 5.89004 3.59906 6.28202V11.4989C3.59906 11.8909 3.91977 12.2116 4.31175 12.2116C4.70373 12.2116 5.02444 11.8909 5.02444 11.4989V6.99471H21.7583V23.8925H15.9143C15.5223 23.8925 15.2016 24.2132 15.2016 24.6052C15.2016 24.9971 15.5223 25.3179 15.9143 25.3179H24.6162C25.0081 25.3179 25.3289 24.9971 25.3289 24.6052C25.3289 24.2132 25.0081 23.8925 24.6162 23.8925H23.1837V10.2731H28.9279L33.5746 14.1216L33.5247 23.8782H32.7835C32.3916 23.8782 32.0709 24.1989 32.0709 24.5909C32.0709 24.9829 32.3916 25.3036 32.7835 25.3036H34.2303C34.6223 25.3036 34.943 24.99 34.943 24.598L35 13.7937C34.9929 13.5799 34.9002 13.3732 34.7363 13.2378Z" fill="#CDB294"/>
</svg>
