<svg width="30" height="30" viewBox="0 0 30 30" fill="none" xmlns="http://www.w3.org/2000/svg">
<g clip-path="url(#clip0)">
<path d="M19.3911 4.45625C19.3911 2.03167 17.4252 0.00683594 15.0002 0.00683594C12.5757 0.00683594 10.6094 2.03132 10.6094 4.45625C10.6094 6.87738 12.5791 8.84712 15.0002 8.84712C17.4214 8.84712 19.3911 6.87738 19.3911 4.45625ZM15.0002 7.09077C13.5476 7.09077 12.3657 5.90893 12.3657 4.45625C12.3657 2.99643 13.5722 1.76318 15.0002 1.76318C16.4283 1.76318 17.6348 2.99643 17.6348 4.45625C17.6348 5.90893 16.4529 7.09077 15.0002 7.09077Z" fill="#CDB294"/>
<path d="M21.1499 14.9939C21.1499 11.6043 18.3923 8.84668 15.0027 8.84668C11.6131 8.84668 8.85547 11.6043 8.85547 14.9939V15.8721H21.1499V14.9939ZM10.7 14.1157C11.108 12.114 12.8823 10.603 15.0027 10.603C17.1231 10.603 18.8973 12.114 19.3053 14.1157H10.7Z" fill="#CDB294"/>
<path d="M5.63278 22.8982H12.3654V24.7716H9.19881L15 29.9926L20.8011 24.7716H17.6345V22.8982H24.3672V25.8964L29.9999 20.2636L24.3672 14.6309V17.6291H5.63278V14.6309L0 20.2636L5.63278 25.8964V22.8982ZM3.87643 21.6563L2.48383 20.2636L3.87643 18.871V19.3855H26.1235V18.871L27.5161 20.2636L26.1235 21.6563V21.1418H15.8781V26.528H16.2242L15 27.6298L13.7757 26.528H14.1218V21.1418H3.87643V21.6563Z" fill="#CDB294"/>
</g>
<defs>
<clipPath id="clip0">
<rect width="30" height="30" fill="white"/>
</clipPath>
</defs>
</svg>
