<svg width="35" height="35" viewBox="0 0 35 35" fill="none" xmlns="http://www.w3.org/2000/svg">
<path d="M26.3555 11.8568L21.5425 5.77114C20.7233 4.73979 19.5384 4.05954 18.2364 3.86937V0.731449C18.2364 0.329152 17.9072 0 17.5049 0C17.1026 0 16.7735 0.329152 16.7735 0.731449V3.86937C15.4715 4.05223 14.2866 4.73248 13.4746 5.77114L8.64708 11.8641C8.23016 12.3981 7.99609 13.0564 7.99609 13.7366V32.0155C8.00341 33.6686 9.34927 35.0072 11.0024 34.9999C11.0097 34.9999 11.0097 34.9999 11.017 34.9999H23.9856C25.6387 35.0145 26.9918 33.6832 27.0065 32.0302C27.0065 32.0229 27.0065 32.0229 27.0065 32.0155V13.7366C27.0065 13.0564 26.7724 12.3981 26.3555 11.8568ZM17.5049 11.001C18.6826 11.001 19.6335 11.9519 19.6335 13.1295C19.6335 14.3071 18.6826 15.258 17.5049 15.258C16.3273 15.258 15.3764 14.3071 15.3764 13.1295C15.3764 11.9592 16.3273 11.001 17.5049 11.001ZM25.5509 32.0155C25.5509 32.8713 24.8487 33.537 23.9929 33.537H11.017C10.1612 33.537 9.45899 32.8713 9.45899 32.0155V13.7366C9.45899 13.3855 9.57602 13.0417 9.79546 12.7711L14.6157 6.67813C15.157 5.99788 15.9177 5.52244 16.7735 5.35421V9.61124C14.8278 10.0135 13.5844 11.9153 13.9867 13.861C14.389 15.8066 16.2907 17.0501 18.2364 16.6478C20.182 16.2455 21.4255 14.3437 21.0232 12.3981C20.7306 11.001 19.6408 9.90382 18.2364 9.61124V5.35421C18.5363 5.41272 18.8289 5.51513 19.1068 5.64679C19.6042 5.88817 20.0431 6.23926 20.3868 6.67813L25.2144 12.7638C25.4338 13.0417 25.5509 13.3855 25.5509 13.7366V32.0155Z" fill="#CDB294"/>
<path d="M19.8371 26.676C19.5153 25.6593 18.5717 24.9644 17.5038 24.9644C16.9625 24.9644 16.5237 24.5255 16.5237 23.9843C16.5237 23.443 16.9625 23.0041 17.5038 23.0041C18.0451 23.0041 18.4839 23.443 18.4839 23.9843C18.4839 24.3866 18.8131 24.7157 19.2154 24.7157C19.6177 24.7157 19.9468 24.3866 19.9468 23.9843C19.9468 22.9163 19.252 21.9728 18.2353 21.6509V21.3291C18.2353 20.9268 17.9061 20.5977 17.5038 20.5977C17.1015 20.5977 16.7723 20.9268 16.7723 21.3291V21.6509C15.485 22.0532 14.7682 23.4284 15.1705 24.7157C15.4923 25.7324 16.4359 26.4273 17.5038 26.4273C18.0451 26.4273 18.4839 26.8662 18.4839 27.4074C18.4839 27.9487 18.0451 28.3876 17.5038 28.3876C16.9625 28.3876 16.5237 27.9487 16.5237 27.4074C16.5237 27.0052 16.1945 26.676 15.7922 26.676C15.3899 26.676 15.0608 27.0052 15.0608 27.4074C15.0608 28.4754 15.7556 29.4189 16.7723 29.7408V30.1065C16.7723 30.5088 17.1015 30.8379 17.5038 30.8379C17.9061 30.8379 18.2353 30.5088 18.2353 30.1065V29.7408C19.5226 29.3385 20.2394 27.9634 19.8371 26.676Z" fill="#CDB294"/>
</svg>
