<?xml version="1.0" encoding="UTF-8"?>
<!DOCTYPE svg PUBLIC "-//W3C//DTD SVG 1.1//EN" "http://www.w3.org/Graphics/SVG/1.1/DTD/svg11.dtd">
<svg xmlns="http://www.w3.org/2000/svg" version="1.1" width="784px" height="292px" style="shape-rendering:geometricPrecision; text-rendering:geometricPrecision; image-rendering:optimizeQuality; fill-rule:evenodd; clip-rule:evenodd" xmlns:xlink="http://www.w3.org/1999/xlink">
<g><path style="opacity:1" fill="#fefefe" d="M -0.5,-0.5 C 260.833,-0.5 522.167,-0.5 783.5,-0.5C 783.5,96.8333 783.5,194.167 783.5,291.5C 522.167,291.5 260.833,291.5 -0.5,291.5C -0.5,194.167 -0.5,96.8333 -0.5,-0.5 Z"/></g>
<g><path style="opacity:1" fill="#7195e6" d="M 136.5,25.5 C 138.308,25.4914 139.975,25.9914 141.5,27C 153.423,39.9669 168.09,48.3002 185.5,52C 199.431,54.383 213.431,56.2163 227.5,57.5C 229.48,59.7948 230.647,62.4615 231,65.5C 238.965,102.48 241.632,139.813 239,177.5C 236.731,201.022 226.231,219.855 207.5,234C 185.901,249.417 162.568,261.584 137.5,270.5C 112.073,261.122 88.4067,248.622 66.5,233C 47.8495,218.873 37.6828,200.04 36,176.5C 33.3098,137.4 36.3098,98.7333 45,60.5C 46.1667,59.3333 47.3333,58.1667 48.5,57C 69.1437,56.7657 89.1437,53.0991 108.5,46C 119.749,41.5569 129.082,34.7236 136.5,25.5 Z"/></g>
<g><path style="opacity:1" fill="#fdfefe" d="M 137.5,40.5 C 161.374,59.236 188.707,68.236 219.5,67.5C 227.646,104.105 230.146,141.105 227,178.5C 224.801,199.378 214.967,215.545 197.5,227C 178.706,239.982 158.539,250.482 137,258.5C 108.292,248.491 82.9586,233.157 61,212.5C 53.1575,201.498 48.8242,189.164 48,175.5C 45.3344,139.151 47.8344,103.151 55.5,67.5C 79.8492,67.5543 102.849,62.0543 124.5,51C 129.311,48.0151 133.644,44.5151 137.5,40.5 Z"/></g>
<g><path style="opacity:1" fill="#abc0f0" d="M 656.5,83.5 C 649.313,83.1755 642.313,83.5088 635.5,84.5C 634.957,84.44 634.624,84.1067 634.5,83.5C 641.99,82.1806 649.323,82.1806 656.5,83.5 Z"/></g>
<g><path style="opacity:1" fill="#adc2f1" d="M 721.5,83.5 C 728.677,82.1806 736.01,82.1806 743.5,83.5C 743.376,84.1067 743.043,84.44 742.5,84.5C 735.687,83.5088 728.687,83.1755 721.5,83.5 Z"/></g>
<g><path style="opacity:1" fill="#7195e6" d="M 338.5,82.5 C 345.532,82.1697 352.532,82.503 359.5,83.5C 375.136,126.43 390.47,169.43 405.5,212.5C 398.91,212.811 392.41,212.478 386,211.5C 381.73,198.857 377.563,186.19 373.5,173.5C 356.487,173.167 339.487,173.501 322.5,174.5C 317.701,186.729 313.201,199.063 309,211.5C 302.924,212.476 296.758,212.81 290.5,212.5C 306.5,169.167 322.5,125.834 338.5,82.5 Z"/></g>
<g><path style="opacity:1" fill="#6f94e6" d="M 421.5,82.5 C 427.5,82.5 433.5,82.5 439.5,82.5C 439.5,120.5 439.5,158.5 439.5,196.5C 461.167,196.5 482.833,196.5 504.5,196.5C 504.5,201.833 504.5,207.167 504.5,212.5C 476.833,212.5 449.167,212.5 421.5,212.5C 421.5,169.167 421.5,125.833 421.5,82.5 Z"/></g>
<g><path style="opacity:1" fill="#7296e6" d="M 541.5,99.5 C 540.505,112.323 540.171,125.323 540.5,138.5C 564.167,138.5 587.833,138.5 611.5,138.5C 612.487,143.305 612.821,148.305 612.5,153.5C 588.833,153.5 565.167,153.5 541.5,153.5C 540.504,167.657 540.171,181.99 540.5,196.5C 566.5,196.5 592.5,196.5 618.5,196.5C 619.488,201.64 619.821,206.974 619.5,212.5C 587.167,212.5 554.833,212.5 522.5,212.5C 522.333,169.499 522.5,126.499 523,83.5C 554.427,82.5043 585.927,82.171 617.5,82.5C 617.5,88.1667 617.5,93.8333 617.5,99.5C 592.167,99.5 566.833,99.5 541.5,99.5 Z"/></g>
<g><path style="opacity:1" fill="#7195e6" d="M 656.5,83.5 C 667.736,98.9625 678.736,114.629 689.5,130.5C 700.906,115.361 711.572,99.6948 721.5,83.5C 728.687,83.1755 735.687,83.5088 742.5,84.5C 728.315,104.855 714.315,125.355 700.5,146C 715.247,168.156 730.247,190.156 745.5,212C 737.812,212.831 730.145,212.665 722.5,211.5C 711.402,194.291 700.068,177.291 688.5,160.5C 676.462,177.407 664.796,194.574 653.5,212C 646.167,212.667 638.833,212.667 631.5,212C 646.833,190 662.167,168 677.5,146C 663.366,125.558 649.366,105.058 635.5,84.5C 642.313,83.5088 649.313,83.1755 656.5,83.5 Z"/></g>
<g><path style="opacity:1" fill="#7296e6" d="M 150.5,91.5 C 156.751,91.9483 158.918,95.2816 157,101.5C 147.536,134.892 137.869,168.226 128,201.5C 125.671,205.729 122.671,206.396 119,203.5C 117.578,200.97 117.245,198.303 118,195.5C 127.333,162.833 136.667,130.167 146,97.5C 146.804,94.8541 148.304,92.8541 150.5,91.5 Z"/></g>
<g><path style="opacity:1" fill="#fcfcfe" d="M 366.5,157.5 C 354.011,158.495 341.344,158.829 328.5,158.5C 334.694,140.42 341.194,122.42 348,104.5C 354.854,121.894 361.021,139.561 366.5,157.5 Z"/></g>
<g><path style="opacity:1" fill="#7195e6" d="M 109.5,113.5 C 116.241,113.39 118.408,116.39 116,122.5C 107.319,131.014 98.8189,139.681 90.5,148.5C 98.8189,157.319 107.319,165.986 116,174.5C 117.837,179.15 116.17,182.15 111,183.5C 99.3966,173.899 88.3966,163.566 78,152.5C 76.627,150.305 76.2937,147.971 77,145.5C 87.7284,134.604 98.5617,123.937 109.5,113.5 Z"/></g>
<g><path style="opacity:1" fill="#7195e6" d="M 161.5,113.5 C 163.199,113.34 164.866,113.506 166.5,114C 177,124.5 187.5,135 198,145.5C 198.706,147.971 198.373,150.305 197,152.5C 188.833,160.667 180.667,168.833 172.5,177C 169.587,179.587 166.42,181.754 163,183.5C 158.698,181.55 157.365,178.55 159,174.5C 167.877,165.958 176.377,157.125 184.5,148C 176.4,139.9 168.233,131.733 160,123.5C 157.608,119.522 158.108,116.188 161.5,113.5 Z"/></g>
<g><path style="opacity:1" fill="#b6c9f2" d="M 541.5,99.5 C 541.5,112.167 541.5,124.833 541.5,137.5C 565.006,137.169 588.339,137.502 611.5,138.5C 587.833,138.5 564.167,138.5 540.5,138.5C 540.171,125.323 540.505,112.323 541.5,99.5 Z"/></g>
<g><path style="opacity:1" fill="#c2d2f4" d="M 366.5,157.5 C 367.043,157.56 367.376,157.893 367.5,158.5C 354.339,159.825 341.339,159.825 328.5,158.5C 341.344,158.829 354.011,158.495 366.5,157.5 Z"/></g>
<g><path style="opacity:1" fill="#e0e7f9" d="M 541.5,153.5 C 541.5,167.5 541.5,181.5 541.5,195.5C 567.339,195.169 593.005,195.502 618.5,196.5C 592.5,196.5 566.5,196.5 540.5,196.5C 540.171,181.99 540.504,167.657 541.5,153.5 Z"/></g>
</svg>
