<svg width="387" height="363" viewBox="0 0 387 363" fill="none" xmlns="http://www.w3.org/2000/svg">
<path fill="#CDB294">
    <animate repeatCount="indefinite" attributeName="d" dur="10s"	
	values="M69.5028 62.0744C167.031 -6.6965 234.272 -36.041 319.002 68.4046C389.514 155.324 423.654 197.291 327.004 291.411C298.322 319.342 259.187 336.656 218.329 347.194C98.7963 378.024 -20.4527 275.885 9.98653 156.252C19.4931 118.89 37.5424 84.611 69.5028 62.0744Z; M54.503 58.0744C98.9997 -42.0001 227 8.00043 304.002 64.4046C394.294 130.543 357.008 174.822 312.004 287.411C301.469 313.768 278.768 331.493 250.175 343.185C114.913 398.491 -7.72815 244.885 36.594 105.637C41.7908 89.31 47.7255 73.3172 54.503 58.0744Z; M69.5028 62.0744C167.031 -6.6965 234.272 -36.041 319.002 68.4046C389.514 155.324 423.654 197.291 327.004 291.411C298.322 319.342 259.187 336.656 218.329 347.194C98.7963 378.024 -20.4527 275.885 9.98653 156.252C19.4931 118.89 37.5424 84.611 69.5028 62.0744Z"></animate>
</path>
<mask id="mask0" mask-type="alpha" maskUnits="userSpaceOnUse" x="5" y="0" width="382" height="353">
<path fill="#CDB294">
    <animate repeatCount="indefinite" attributeName="d" dur="10s"	
	values="M69.5028 62.0744C167.031 -6.6965 234.272 -36.041 319.002 68.4046C389.514 155.324 423.654 197.291 327.004 291.411C298.322 319.342 259.187 336.656 218.329 347.194C98.7963 378.024 -20.4527 275.885 9.98653 156.252C19.4931 118.89 37.5424 84.611 69.5028 62.0744Z; M41.0006 102C77.9991 -11.0001 187 -32.9997 314.5 79C385.5 141.368 332.5 258.001 284 318.501C247.117 364.509 176.69 351.817 145.069 343.098C134.211 340.104 123.985 335.5 114.746 329.058C80.3056 305.041 -1.56026 231.988 41.0006 102Z; M69.5028 62.0744C167.031 -6.6965 234.272 -36.041 319.002 68.4046C389.514 155.324 423.654 197.291 327.004 291.411C298.322 319.342 259.187 336.656 218.329 347.194C98.7963 378.024 -20.4527 275.885 9.98653 156.252C19.4931 118.89 37.5424 84.611 69.5028 62.0744Z"></animate>
</path>
</mask>
<g mask="url(#mask0)">
<g opacity="0.3">
<path d="M275.667 45.8921L272.239 42.0566C272.094 44.3149 271.934 46.5552 271.789 48.7777L274.868 52.1292C275.144 50.0681 275.406 47.9891 275.667 45.8921Z" fill="white"/>
<path d="M111.183 134.251L111.634 130.612C110.602 131.311 109.571 132.01 108.555 132.691L108.191 135.917C109.179 135.38 110.181 134.824 111.183 134.251Z" fill="white"/>
<path d="M325.514 137.083L327.925 135.058C326.835 134.61 325.732 134.18 324.657 133.731L322.551 135.577C323.524 136.079 324.512 136.581 325.514 137.083Z" fill="white"/>
<path d="M81.5404 145.202C82.9202 142.746 84.2999 140.291 85.6797 137.853C83.719 137.136 81.7582 136.419 79.783 135.685C79.5797 135.989 79.3763 136.294 79.1875 136.599L81.5404 145.202Z" fill="white"/>
<path d="M19.1617 182.499C19.6846 180.438 20.1929 178.377 20.7158 176.334C19.2488 176.37 17.7674 176.388 16.286 176.424C16.1988 176.692 16.1117 176.943 16.0391 177.212L19.1617 182.499Z" fill="white"/>
<path d="M321.621 208.092C325.731 207.107 329.827 206.139 333.908 205.171C332.194 201.371 330.481 197.572 328.752 193.736C328.2 193.808 327.663 193.898 327.111 193.969L321.621 208.092Z" fill="white"/>
<path d="M131.082 348.088C131.866 347.084 132.651 346.08 133.435 345.077C132.578 344.575 131.721 344.055 130.85 343.535C130.733 343.661 130.632 343.786 130.516 343.894L131.082 348.088Z" fill="white"/>
<path d="M101.876 243.795C98.6083 244.924 95.3549 246.053 92.1016 247.182C93.6847 250.104 95.2823 253.043 96.8799 256C97.3156 255.893 97.7514 255.785 98.1871 255.678L101.876 243.795Z" fill="white"/>
<path d="M249.262 315.145C249.552 317.851 249.857 320.521 250.148 323.21C251.818 322.206 253.488 321.202 255.173 320.199C255.158 319.84 255.144 319.482 255.115 319.123L249.262 315.145Z" fill="white"/>
<path d="M234.22 253.025C233.798 252.954 233.377 252.9 232.941 252.828L233.595 254.369C233.798 253.921 234.016 253.473 234.22 253.025Z" fill="white"/>
<path d="M309.915 110.862C309.784 110.736 309.668 110.611 309.537 110.485L309.508 111.131C309.653 111.041 309.784 110.951 309.915 110.862Z" fill="white"/>
<path d="M140.723 79.784C140.795 79.8736 140.868 79.9453 140.941 80.0349L140.984 79.6406C140.897 79.6944 140.81 79.7302 140.723 79.784Z" fill="white"/>
<path d="M57.8984 11.8027L57.9275 12.6272C58.857 12.9139 59.7865 13.2007 60.7161 13.4695L60.5418 13.1649L57.8984 11.8027Z" fill="white"/>
<path d="M355.492 345.47L353.705 343.48C350.786 345.721 347.881 347.961 344.977 350.184L346.051 350.399L355.492 345.47Z" fill="white"/>
<path d="M53.9295 292.15C53.8568 292.114 53.7987 292.061 53.7261 292.007C53.334 292.419 52.9273 292.831 52.5352 293.226C52.8692 294.158 53.2033 295.09 53.5373 296.022L54.5395 294.982L53.9295 292.15Z" fill="white"/>
<path d="M271.031 140.739C271.016 140.775 270.987 140.828 270.973 140.864C271.147 141.115 271.336 141.366 271.51 141.617C271.902 141.384 272.294 141.151 272.686 140.936L272.236 140.309L271.031 140.739Z" fill="white"/>
<path d="M330.899 85.0346C330.943 84.9808 330.986 84.927 331.03 84.8733C330.856 84.3894 330.681 83.9054 330.507 83.4395C329.839 83.5649 329.156 83.6725 328.488 83.7979L328.939 85.0167L330.899 85.0346Z" fill="white"/>
<path d="M139.549 61.1443L146.288 63.5818C145.678 60.499 145.068 57.4343 144.443 54.3516C142.744 55.5165 141.03 56.6815 139.316 57.8644L139.549 61.1443Z" fill="white"/>
<path d="M77.3293 122.727L81.2362 114.088C78.3024 114.142 75.3685 114.213 72.4492 114.285C73.0592 116.92 73.6837 119.572 74.3083 122.225L77.3293 122.727Z" fill="white"/>
<path d="M108.495 8.30816L111.589 5.38676C109.788 4.25763 108.001 3.1285 106.2 1.98145L103.688 3.98879L108.495 8.30816Z" fill="white"/>
<path d="M116.032 203.182L121.624 203.594C120.535 200.26 119.445 196.945 118.356 193.611L114.086 192.858L116.032 203.182Z" fill="white"/>
<path d="M9.3011 306.058L6.83203 312.689C9.89658 312.635 12.9611 312.599 16.0402 312.546L18.2769 307.653L9.3011 306.058Z" fill="white"/>
<path d="M150.544 267.094C148.249 269.961 145.969 272.829 143.703 275.661L154.625 277.865L158.183 268.778L150.544 267.094Z" fill="white"/>
<path d="M163.801 189.113C166.125 190.314 168.419 191.497 170.7 192.68L171.426 192.052C171.44 188.97 171.455 185.851 171.469 182.732L163.801 189.113Z" fill="white"/>
<path d="M92.8248 325.361C92.0841 326.903 91.3434 328.426 90.6172 329.932L90.8496 330.487C92.2729 330.756 93.7108 331.007 95.1632 331.276L92.8248 325.361Z" fill="white"/>
<path d="M8.5269 166.602C8.9481 165.831 9.38381 165.043 9.81953 164.254L8.33809 161.189L5.17188 162.247L7.46666 166.835L8.5269 166.602Z" fill="white"/>
<path d="M225.399 16.7314C228.217 16.8927 231.063 17.0361 233.925 17.1974L238.892 5.45805L230.003 -4.82959L222.727 13.0573L225.399 16.7314Z" fill="white"/>
<path d="M182.905 352.353C181.743 353.087 180.596 353.84 179.434 354.575C180.015 355.328 180.581 356.08 181.162 356.833C181.743 355.346 182.324 353.858 182.905 352.353Z" fill="white"/>
<path d="M312.746 155.758C313.429 157.819 314.111 159.862 314.794 161.923C315.709 161.045 316.624 160.167 317.539 159.271C315.941 158.088 314.344 156.923 312.746 155.758Z" fill="white"/>
<path d="M313.864 57.2373C313.676 57.6495 313.501 58.0617 313.312 58.474C313.545 58.5457 313.792 58.6173 314.024 58.6711C313.981 58.1872 313.922 57.7033 313.864 57.2373Z" fill="white"/>
<path d="M327.617 45.5154L327.893 45.4079C328.038 45.1032 328.198 44.7985 328.343 44.5117H328.314L327.617 45.5154Z" fill="white"/>
<path d="M169.08 315.593L169.138 316.005C169.4 316.256 169.676 316.525 169.937 316.776L169.952 316.74L169.08 315.593Z" fill="white"/>
<path d="M289.609 0.493652L290.118 0.905874C290.713 0.798338 291.323 0.708727 291.919 0.601191L291.904 0.547418L289.609 0.493652Z" fill="white"/>
<path d="M212.603 173.968L211.804 173.18C210.787 173.251 209.771 173.305 208.754 173.377L208.783 173.466L212.603 173.968Z" fill="white"/>
<path d="M118.375 220.548L121.207 221.48L121.309 221.355C121.367 221.247 121.425 221.158 121.483 221.05L119.014 219.76L118.375 220.548Z" fill="white"/>
<path d="M21.1211 5.06396L23.8371 13.4876L24.2002 13.5414C24.4471 13.5235 24.7085 13.5056 24.9554 13.5056L23.3578 5.44035L21.1211 5.06396Z" fill="white"/>
<path d="M303.608 351.384L308.358 347.621L308.329 347.28C308.285 347.047 308.241 346.814 308.198 346.581L303.492 349.252L303.608 351.384Z" fill="white"/>
<path d="M19.7812 254.602L23.9496 252.469L23.9641 252.2C23.9496 252.003 23.9496 251.824 23.9351 251.627L19.9265 252.917L19.7812 254.602Z" fill="white"/>
<path d="M173.816 245.73L174.92 232.127L174.47 231.751C174.121 231.553 173.772 231.356 173.438 231.159L171.027 243.329L173.816 245.73Z" fill="white"/>
<path d="M352.484 162.264C352.949 163.124 353.399 163.984 353.864 164.844L355.665 164.504C357.481 161.332 359.282 158.177 361.068 155.041L361.3 147.513L361.083 147.029L352.484 162.264Z" fill="white"/>
<path d="M170.4 273.726C170.69 273.672 170.995 273.619 171.286 273.565L171.46 272.794C170.893 271.593 170.341 270.393 169.79 269.192L167.843 267.955L167.684 267.973L170.4 273.726Z" fill="white"/>
<path d="M89.7291 14.7067C89.6129 14.3841 89.4968 14.0794 89.3806 13.7568H88.7705C88.0298 14.6888 87.3036 15.6208 86.5629 16.5349L86.1562 19.0261L86.2143 19.2053L89.7291 14.7067Z" fill="white"/>
<path d="M346.047 94.1037C346.352 94.265 346.657 94.4263 346.976 94.5876L347.514 93.9782C347.543 92.4189 347.586 90.8596 347.615 89.3183L346.337 86.7374L346.178 86.6299L346.047 94.1037Z" fill="white"/>
<path d="M155.667 337.011C155.493 338.516 155.319 340.022 155.145 341.545L157.425 343.338C161.956 341.993 166.473 340.667 170.961 339.341L177.206 331.258L177.352 330.451L155.667 337.011Z" fill="white"/>
<path d="M205.066 189.579C204.921 189.364 204.776 189.149 204.645 188.934L204.166 189.095C203.745 190.009 203.324 190.923 202.902 191.819L203.004 193.862L203.077 193.988L205.066 189.579Z" fill="white"/>
<path d="M106.301 151.134L106.098 151.456L106.272 151.385L106.301 151.134Z" fill="white"/>
<path d="M102.15 179.954L102.02 180.33L102.179 180.205L102.15 179.954Z" fill="white"/>
<path d="M19.5664 39.4757L20.0312 39.5832L19.8278 39.3682L19.5664 39.4757Z" fill="white"/>
<path d="M290.215 105.61L290.534 105.915L290.462 105.646L290.215 105.61Z" fill="white"/>
<path d="M329.637 298.226L329.811 300.448C330.29 300.52 330.784 300.574 331.263 300.645L329.695 298.064L329.637 298.226Z" fill="white"/>
<path d="M240.419 331.185L239.605 337.888C240.985 338.516 242.38 339.161 243.774 339.788L240.709 330.791L240.419 331.185Z" fill="white"/>
<path d="M262.348 294.749L264.686 293.207C264.483 292.365 264.294 291.522 264.091 290.662L262.145 294.713L262.348 294.749Z" fill="white"/>
<path d="M199.036 150.579L196.915 146.887C196.015 147.371 195.114 147.855 194.199 148.338L199.036 150.919V150.579Z" fill="white"/>
<path d="M231.688 156.171L232.457 157.103L232.022 154.97C231.905 155.364 231.789 155.776 231.688 156.171Z" fill="white"/>
<path d="M214.362 271.539L215.538 271.987L214.188 270.123C214.246 270.589 214.304 271.055 214.362 271.539Z" fill="white"/>
<path d="M204.791 90.1977L206.069 89.427L203.73 89.1582C204.079 89.4987 204.442 89.8572 204.791 90.1977Z" fill="white"/>
<path d="M132.416 315.36L132.43 311.291C132.082 310.879 131.719 310.467 131.37 310.055L126.562 313.299C126.664 315.091 126.766 316.883 126.868 318.676L132.416 315.36Z" fill="white"/>
<path d="M128.629 278.547L129.312 281.594C129.646 281.809 129.98 282.024 130.314 282.257L133.349 278.601C132.972 277.293 132.594 275.967 132.216 274.658L128.629 278.547Z" fill="white"/>
<path d="M291.063 312.439L294.04 313.747C294.461 313.478 294.868 313.209 295.289 312.958L294.432 306.578C293.081 306.13 291.745 305.664 290.395 305.216L291.063 312.439Z" fill="white"/>
<path d="M366.164 96.5958L368.487 97.94C368.836 97.7608 369.185 97.5995 369.548 97.4202L369.272 92.1868C368.211 91.685 367.166 91.1831 366.105 90.6992L366.164 96.5958Z" fill="white"/>
<path d="M355.199 245.515L355.795 248.49C356.114 248.705 356.434 248.938 356.753 249.153L359.774 245.694C359.426 244.404 359.092 243.131 358.743 241.841L355.199 245.515Z" fill="white"/>
<path d="M260.188 17.4669C259.157 12.2335 258.126 7.00004 257.109 1.7666L251.953 17.5386L258.358 19.0441C258.954 18.5243 259.578 17.9867 260.188 17.4669Z" fill="white"/>
<path d="M15.6299 204.67C13.5094 206.462 11.3744 208.237 9.25391 210.029L17.3728 210.262L16.7192 205.584C16.3706 205.279 15.993 204.975 15.6299 204.67Z" fill="white"/>
<path d="M42.105 109.285C41.3643 108.514 40.6235 107.743 39.8828 106.973L40.6526 110.629L41.9597 109.858C42.0033 109.679 42.0614 109.482 42.105 109.285Z" fill="white"/>
<path d="M125.59 0.0993719L134.508 0.117299L130.296 -14.0596C129.279 -12.7691 128.277 -11.4787 127.26 -10.1883L125.59 0.0993719Z" fill="white"/>
<path d="M26.773 352.281L23.9844 354.486L27.6008 357.873C27.7025 357.228 27.8187 356.565 27.9204 355.92L26.773 352.281Z" fill="white"/>
<path d="M230.933 232.486L231.224 229.762L228.246 230.586C228.464 230.945 228.696 231.285 228.929 231.644L230.933 232.486Z" fill="white"/>
<path d="M75.2929 299.355L77.0503 297.581L74.3634 295.627C74.3343 296.075 74.3053 296.541 74.2617 296.989L75.2929 299.355Z" fill="white"/>
<path d="M162.379 94.0322L164.383 93.7275L164.572 90.4297C163.86 91.6305 163.12 92.8313 162.379 94.0322Z" fill="white"/>
<path d="M109.326 327.387L108.527 336.294L117.677 339.843C114.903 335.703 112.129 331.563 109.326 327.387Z" fill="white"/>
<path d="M319.962 268.349L319.875 270.338L321.937 271.001C321.284 270.105 320.616 269.227 319.962 268.349Z" fill="white"/>
<path d="M381.867 254.745L385.948 252.487L384.612 245.39C383.697 248.49 382.782 251.609 381.867 254.745Z" fill="white"/>
<path d="M342.713 48.4189L352.473 46.6446L353.098 45.4258L348.653 38.0596L342.176 47.469L342.713 48.4189Z" fill="white"/>
<path d="M138.941 190.708L147.336 200.404L148.687 200.225L150.909 189.883L139.261 189.399L138.941 190.708Z" fill="white"/>
<path d="M295.855 166.996L295.26 161.494L294.258 160.598C293.067 161.512 291.876 162.444 290.699 163.358L295.55 167.265L295.855 166.996Z" fill="white"/>
<path d="M160.856 130.057L156.397 133.659L156.121 135.451C157.53 136.545 158.939 137.656 160.333 138.749L161.248 130.325L160.856 130.057Z" fill="white"/>
<path d="M55.2812 128.569L56.6174 144.234L59.406 146.886C62.8482 144.395 66.2759 141.904 69.7035 139.412L56.1817 127.816L55.2812 128.569Z" fill="white"/>
<path d="M195.596 268.922L200.564 264.19L200.752 262.057C199.024 260.928 197.296 259.799 195.553 258.67L195.117 268.653L195.596 268.922Z" fill="white"/>
<path d="M309.778 130.129C308.297 128.426 306.816 126.742 305.334 125.039L297.84 143.948L304.39 150.489L309.778 130.129Z" fill="white"/>
<path d="M72.546 214.778L76.1334 213.38L75.6541 206.086C74.8698 206.444 74.0855 206.785 73.3012 207.143C72.9817 207.538 72.6477 207.932 72.3281 208.326L72.546 214.778Z" fill="white"/>
<path d="M124.533 84.2287L129.413 69.4246L112.725 54.9609C111.767 58.2946 110.793 61.6282 109.82 64.9797C109.951 66.9154 110.082 68.8331 110.212 70.7688L124.533 84.2287Z" fill="white"/>
<path d="M242 44.7983L247.229 53.1861L259.516 46.25C258.296 44.4578 257.076 42.6476 255.841 40.8553C254.912 40.2997 253.968 39.7441 253.024 39.1885L242 44.7983Z" fill="white"/>
<path d="M282.043 131.67L284.977 137.28L292.979 133.696C292.282 132.495 291.585 131.276 290.888 130.075C290.322 129.663 289.755 129.269 289.189 128.856L282.043 131.67Z" fill="white"/>
<path d="M108.394 198.88L97.6463 187.051L79.1719 203.217C81.6409 205.708 84.11 208.2 86.5936 210.709C88.2784 211.264 89.9632 211.82 91.6479 212.376L108.394 198.88Z" fill="white"/>
<path d="M348.562 8.79199L346.441 21.8935L361.982 30.5323C362.345 27.6108 362.723 24.6715 363.1 21.7322C362.752 20.1729 362.403 18.6136 362.04 17.0544L348.562 8.79199Z" fill="white"/>
<path d="M61.9189 180.796L61.4106 179.434C60.6553 179.147 59.9146 178.86 59.1739 178.556L54.8603 178.681L54.5117 180.348C55.1943 182.535 55.877 184.703 56.5596 186.89C58.3315 184.864 60.1179 182.839 61.9189 180.796Z" fill="white"/>
<path d="M162.437 36.3572L163.003 35.5686C162.945 34.8875 162.901 34.2244 162.843 33.5612L161.594 30.1738L160.636 30.3531C159.692 31.4822 158.748 32.6292 157.789 33.7584C159.329 34.6187 160.883 35.479 162.437 36.3572Z" fill="white"/>
<path d="M368.039 294.749C368.257 296.272 368.475 297.778 368.707 299.301L370.276 295.215L368.039 294.749Z" fill="white"/>
<path d="M195.41 26.5176C195.846 28.041 196.267 29.5644 196.703 31.0879L197.792 26.5355L195.41 26.5176Z" fill="white"/>
<path d="M322.392 320.199C322.639 319.984 322.872 319.787 323.119 319.572L322.262 319.554L322.392 320.199Z" fill="white"/>
<path d="M376.435 272.489L372.92 262.954L358.323 254.118C358.28 257.075 358.251 260.015 358.207 262.936C363.566 266.754 368.969 270.589 374.387 274.443C375.026 274.138 375.665 273.815 376.304 273.511C376.347 273.17 376.391 272.829 376.435 272.489Z" fill="white"/>
<path d="M255.713 147.03L255.641 142.711L251.284 136.42C250.877 137.531 250.47 138.642 250.078 139.736C251.603 142.263 253.143 144.808 254.682 147.353C254.958 147.371 255.249 147.371 255.525 147.389C255.597 147.281 255.655 147.156 255.713 147.03Z" fill="white"/>
<path d="M232.066 280.214L235.232 278.977L238.703 272.4C237.774 272.238 236.844 272.077 235.929 271.934C234.477 274.317 233.01 276.737 231.543 279.156C231.616 279.479 231.674 279.802 231.746 280.124C231.848 280.142 231.95 280.178 232.066 280.214Z" fill="white"/>
<path d="M386.76 299.947C387.109 299.481 387.443 298.997 387.792 298.531C387.356 298.316 386.92 298.118 386.484 297.903C386.586 298.602 386.673 299.265 386.76 299.947Z" fill="white"/>
<path d="M113.421 31.4639C113.319 31.7327 113.218 32.0016 113.102 32.2704C113.319 32.2883 113.537 32.3242 113.755 32.3421C113.639 32.0553 113.523 31.7686 113.421 31.4639Z" fill="white"/>
<path d="M137.366 249.547C137.584 249.243 137.801 248.956 138.019 248.651C137.743 248.526 137.467 248.382 137.191 248.257C137.25 248.687 137.308 249.117 137.366 249.547Z" fill="white"/>
<path d="M252.023 226.571C252.822 225.872 253.621 225.155 254.42 224.456C253.679 223.847 252.938 223.237 252.183 222.628C252.125 223.936 252.067 225.263 252.023 226.571Z" fill="white"/>
<path d="M267.777 207.25C268.024 207.304 268.271 207.339 268.533 207.393C269.128 206.497 269.709 205.619 270.304 204.723C270.116 204.31 269.927 203.916 269.738 203.504L268.068 203.862L267.777 207.25Z" fill="white"/>
<path d="M93.7272 118.568C93.5239 118.873 93.3205 119.178 93.1172 119.5C93.5384 120.88 93.945 122.243 94.3517 123.605C94.831 123.605 95.3103 123.605 95.8041 123.623L96.5448 121.113L93.7272 118.568Z" fill="white"/>
<path d="M261.561 29.4031C261.561 29.2777 261.561 29.1522 261.561 29.0268C261.242 28.7938 260.922 28.5787 260.602 28.3457C260.486 28.4712 260.37 28.5787 260.254 28.7042L260.486 29.4928L261.561 29.4031Z" fill="white"/>
<path d="M249.453 165.257C249.526 165.311 249.613 165.382 249.686 165.436C249.991 165.239 250.281 165.042 250.586 164.845C250.571 164.683 250.557 164.504 250.542 164.343L249.932 164.182L249.453 165.257Z" fill="white"/>
<path d="M296.421 273.654L291.643 272.363C290.96 272.901 290.292 273.439 289.609 273.976L291.381 288.171C293.4 286.522 295.433 284.855 297.467 283.189L296.421 273.654Z" fill="white"/>
<path d="M380.441 164.217L381.008 166.583C381.298 166.78 381.589 166.977 381.879 167.156L385.655 163.59C384.784 163.016 383.898 162.443 383.012 161.869L380.441 164.217Z" fill="white"/>
<path d="M84.431 251.108L81.686 246.752C80.9452 246.645 80.2191 246.537 79.4783 246.43L73.9883 257.721C76.1959 258.008 78.4181 258.312 80.6548 258.617L84.431 251.108Z" fill="white"/>
<path d="M136.887 137.907L145.616 139.646C146.792 138.588 147.983 137.513 149.145 136.455L144.759 111.041C141.244 114.285 137.715 117.547 134.156 120.809L136.887 137.907Z" fill="white"/>
<path d="M63.198 269.55C61.7602 267.489 60.3223 265.428 58.899 263.402L58.3906 271.217L63.198 269.55Z" fill="white"/>
<path d="M46.3062 205.637C48.0054 203.809 49.6902 201.981 51.3605 200.171L44.8828 199.615L46.3062 205.637Z" fill="white"/>
<path d="M87.9724 352.586C88.1176 350.704 88.2629 348.822 88.4081 346.958L84.9805 350.417L87.9724 352.586Z" fill="white"/>
<path d="M1.15227 148.5L2.29966 148.661L7.44113 145.739C3.76658 141.994 0.121073 138.266 -3.50991 134.556L-4.01824 134.86C-4.61372 137.065 -5.20921 139.251 -5.80469 141.456L1.15227 148.5Z" fill="white"/>
<path d="M42.3594 134.125L42.3884 134.484L43.2453 135.918C43.8118 134.591 44.3782 133.265 44.9301 131.957L44.843 131.813C44.3637 131.742 43.8844 131.688 43.4051 131.616L42.3594 134.125Z" fill="white"/>
<path d="M76.7174 77.5077L76.5721 76.7908L74.5097 74.2637C73.7109 77.1313 72.9121 79.981 72.1133 82.8128L72.3166 83.0637C73.2897 83.0279 74.2483 82.9741 75.2214 82.9383L76.7174 77.5077Z" fill="white"/>
<path d="M84.7066 274.013L84.7502 273.726L84.3145 272.418C83.6609 273.314 83.0219 274.192 82.3828 275.071L82.4264 275.196C82.7895 275.357 83.1381 275.537 83.5011 275.698L84.7066 274.013Z" fill="white"/>
<path d="M77.3555 -1.69313L77.2684 -1.90821L76.426 -2.51758C76.3534 -1.51391 76.2953 -0.492311 76.2227 0.493439L76.3098 0.547205C76.6148 0.439669 76.9343 0.314212 77.2393 0.206676L77.3555 -1.69313Z" fill="white"/>
<path d="M273.74 -7.94758L273.449 -9.13047L269.76 -13.1631C268.627 -8.23434 267.509 -3.32352 266.391 1.55146L266.768 1.94577C268.395 1.74862 270.022 1.56939 271.663 1.37224L273.74 -7.94758Z" fill="white"/>
<path d="M324.57 112.761L324.672 114.052L327.766 119.124C329.755 114.374 331.731 109.625 333.706 104.929L333.386 104.427C331.687 104.194 329.988 103.979 328.274 103.746L324.57 112.761Z" fill="white"/>
<path d="M178.941 86.0202L180.67 87.9559C180.8 88.0276 180.917 88.0992 181.047 88.1709L183.371 86.6296C182.442 86.0023 181.498 85.3929 180.554 84.7656C180.016 85.1599 179.479 85.5901 178.941 86.0202Z" fill="white"/>
<path d="M284.108 244.422L274.13 237.056C273.462 236.876 272.808 236.679 272.14 236.5L262.031 246.859C267.057 248.759 272.125 250.659 277.223 252.595C279.518 249.852 281.813 247.128 284.108 244.422Z" fill="white"/>
<path d="M220.738 298.118L214.028 290.16C213.534 289.874 213.055 289.569 212.561 289.282L203.164 295.107C206.81 297.706 210.484 300.323 214.173 302.957C216.366 301.344 218.559 299.731 220.738 298.118Z" fill="white"/>
<path d="M27.3951 300.27L28.7167 297.796L26.8867 297.474C27.061 298.406 27.2353 299.338 27.3951 300.27Z" fill="white"/>
<path d="M40.4091 81.7736L38.6227 77.042L36.5312 80.1247C37.8239 80.6803 39.1165 81.2359 40.4091 81.7736Z" fill="white"/>
<path d="M36.0689 174.703C32.7138 177.463 29.4024 180.187 26.1055 182.912L26.1926 199.598C30.2157 202.949 34.2679 206.301 38.3491 209.706C37.5939 197.985 36.8241 186.299 36.0689 174.703Z" fill="white"/>
<path d="M308.52 18.0938C307.808 19.3483 307.111 20.585 306.414 21.8038L307.954 26.5533C309.406 26.9476 310.858 27.3598 312.34 27.7541C311.047 24.528 309.784 21.3019 308.52 18.0938Z" fill="white"/>
<path d="M99.4766 254.226C100.9 258.85 102.323 263.438 103.732 267.972L116.891 271.539C120.406 267.453 123.949 263.348 127.522 259.19C118.14 257.541 108.772 255.874 99.4766 254.226Z" fill="white"/>
<path d="M282.73 263.761C286.942 263.886 291.111 263.994 295.25 264.119L303.282 249.763C301.466 243.92 299.636 238.042 297.792 232.109C292.752 242.702 287.727 253.276 282.73 263.761Z" fill="white"/>
<path d="M277.327 261.789L269.324 270.392C274.059 272.973 278.852 275.59 283.688 278.224L277.327 261.789Z" fill="white"/>
<path d="M145.638 300.466L140.947 290.232C138.245 294.91 135.529 299.642 132.77 304.427L145.638 300.466Z" fill="white"/>
<path d="M254.87 190.492L248.349 185.707C247.986 190.259 247.608 194.848 247.23 199.49L254.87 190.492Z" fill="white"/>
<path d="M240.723 207.752L238.312 209.257C239.344 210.261 240.404 211.265 241.464 212.286L240.723 207.752Z" fill="white"/>
<path d="M40.8594 149.054C41.237 150.614 41.6291 152.173 42.0068 153.714C48.2666 156.779 54.4828 159.844 60.6555 162.873L58.0266 148.409L42.5442 147.441C41.9777 147.979 41.4113 148.517 40.8594 149.054Z" fill="white"/>
<path d="M221.012 221.266C220.852 220.316 220.693 219.366 220.533 218.434C216.96 216.212 213.402 213.989 209.887 211.803L210.831 220.531L219.966 222.108C220.315 221.822 220.663 221.553 221.012 221.266Z" fill="white"/>
<path d="M157.285 208.111C157.314 208.756 157.329 209.419 157.358 210.064C159.536 212.018 161.7 213.954 163.864 215.871L163.995 209.939L158.069 207.681C157.808 207.824 157.547 207.967 157.285 208.111Z" fill="white"/>
<path d="M285.617 77.7406C285.922 78.9235 286.227 80.1243 286.518 81.3072C291.34 83.6013 296.118 85.8954 300.867 88.1716L298.776 77.1133L286.895 76.5039C286.46 76.9161 286.038 77.3283 285.617 77.7406Z" fill="white"/>
<path d="M265.574 225.37C266.431 226.356 267.288 227.359 268.145 228.345C274.085 227.27 279.996 226.194 285.85 225.137L278.588 215.423L266.286 223.219C266.054 223.936 265.821 224.653 265.574 225.37Z" fill="white"/>
<path d="M60.407 220.729L55.832 219.402C55.4834 219.582 55.1348 219.761 54.8008 219.922L54.8298 220.729C56.0063 222.27 57.1682 223.811 58.3156 225.317L60.2908 224.528L60.407 220.729Z" fill="white"/>
<path d="M354.168 176.459L358.67 180.832C359.121 180.85 359.585 180.885 360.036 180.903L360.341 179.989C359.687 177.534 359.033 175.096 358.394 172.695L355.882 172.318L354.168 176.459Z" fill="white"/>
<path d="M160.868 291.988L149.511 297.186C148.973 298.172 148.436 299.157 147.898 300.143L148.886 301.81C153.2 303.065 157.47 304.301 161.696 305.52L165.008 300.34L160.868 291.988Z" fill="white"/>
<path d="M35.3867 274.908L37.5072 279.174C37.7977 279.335 38.1027 279.478 38.3932 279.64L38.7708 279.12C38.8144 277.292 38.8725 275.482 38.916 273.689L37.3184 272.686L35.3867 274.908Z" fill="white"/>
<path d="M208.613 241.304L208.352 245.856C208.511 246.161 208.657 246.483 208.816 246.788L209.325 246.663C210.153 245.336 210.966 244.028 211.779 242.738L211.038 240.945L208.613 241.304Z" fill="white"/>
<path d="M65.4766 320.127L70.3566 322.475C70.7633 322.349 71.1554 322.224 71.5621 322.098L71.6347 321.202C70.5309 319.266 69.4416 317.367 68.3668 315.467L66.0866 315.969L65.4766 320.127Z" fill="white"/>
<path d="M5.51193 286.864C5.51193 285.34 5.51193 283.799 5.51193 282.275C4.72764 283.333 3.94335 284.39 3.14453 285.466L5.51193 286.864Z" fill="white"/>
<path d="M8.45601 13.5055C7.16339 12.9319 5.87075 12.3405 4.57812 11.749C5.17361 13.1649 5.76909 14.5808 6.36457 16.0146L8.45601 13.5055Z" fill="white"/>
<path d="M326.237 350.346C325.395 352.496 324.538 354.647 323.695 356.816C325.395 355.991 327.079 355.167 328.793 354.342L326.237 350.346Z" fill="white"/>
<path d="M183.978 174.237C187.26 169.003 190.557 163.752 193.869 158.482C188.887 159.522 183.905 160.561 178.895 161.601L183.978 174.237Z" fill="white"/>
<path d="M343.302 221.32L341.457 221.446L342.212 222.933C342.575 222.396 342.938 221.858 343.302 221.32Z" fill="white"/>
<path d="M312.56 190.402L313.94 183.807L309.844 185.115C310.759 186.871 311.659 188.646 312.56 190.402Z" fill="white"/>
<path d="M311.123 292.239L310.223 292.813L310.876 293.35C310.949 292.974 311.036 292.616 311.123 292.239Z" fill="white"/>
<path d="M154.555 240.12L158.752 242.988V238.453C157.358 239.009 155.949 239.564 154.555 240.12Z" fill="white"/>
<path d="M128.646 44.9238L124.027 45.4615L122.633 46.7878L126.845 49.1357L128.399 47.7019C128.486 46.7699 128.573 45.8379 128.646 44.9238Z" fill="white"/>
<path d="M94.7442 278.654L94.4102 289.641L96.124 293.261L100.786 283.977L98.9561 279.945C97.5473 279.497 96.153 279.084 94.7442 278.654Z" fill="white"/>
<path d="M83.8477 96.9179L86.7379 97.814L87.8127 97.366L85.6631 94.8389L84.4722 95.3049C84.2689 95.8425 84.051 96.3802 83.8477 96.9179Z" fill="white"/>
<path d="M49.3978 309.5L39.8411 311.149L37.0234 314.088L45.9411 318.479L49.0783 315.307C49.18 313.371 49.2816 311.436 49.3978 309.5Z" fill="white"/>
<path d="M71.5782 160.383L70.6487 159.021L69.3125 162.014C69.8935 162.049 70.4599 162.085 71.0408 162.121L71.5782 160.383Z" fill="white"/>
<path d="M201.335 318.73L200.87 318.049L200.188 319.554C200.478 319.572 200.768 319.59 201.059 319.608L201.335 318.73Z" fill="white"/>
<path d="M173.693 149.414L172.865 148.751L170.309 150.705L173.46 150.74C173.533 150.292 173.606 149.862 173.693 149.414Z" fill="white"/>
<path d="M209.645 19.1871L215.541 27.7721C218.185 26.3562 220.813 24.9403 223.442 23.5244C223.66 22.9329 223.863 22.3415 224.081 21.75C222.106 19.1154 220.116 16.4628 218.112 13.7744L209.645 19.1871Z" fill="white"/>
<path d="M373.41 9.41943L375.778 26.1772C380.091 26.8224 384.405 27.4497 388.704 28.0949C389.343 27.5214 389.996 26.9479 390.636 26.3743C389.691 21.0871 388.747 15.7462 387.789 10.3693L373.41 9.41943Z" fill="white"/>
<path d="M174.592 108.89L159.458 103.782C156.829 108.962 154.2 114.124 151.586 119.285C151.746 120.379 151.92 121.49 152.08 122.583C156.96 123.963 161.869 125.343 166.822 126.723L174.592 108.89Z" fill="white"/>
<path d="M279.022 153.769L263.206 153.715C261.754 159.611 260.301 165.49 258.863 171.351C259.255 172.372 259.662 173.376 260.054 174.398C265.094 174.147 270.177 173.896 275.29 173.645L279.022 153.769Z" fill="white"/>
<path d="M60.4219 109.572C61.1626 109.267 61.9033 108.962 62.644 108.675L60.5962 107.17C60.5526 107.976 60.4945 108.765 60.4219 109.572Z" fill="white"/>
<path d="M210.075 155.077C212.21 153.643 214.331 152.209 216.437 150.793L209.523 147.639C209.712 150.13 209.887 152.603 210.075 155.077Z" fill="white"/>
<path d="M216.425 323.855C216.352 325.63 216.28 327.386 216.207 329.125L219.62 325.809C218.545 325.164 217.485 324.519 216.425 323.855Z" fill="white"/>
<path d="M256.205 112.062L240.621 115.755C240.417 116.31 240.214 116.884 239.996 117.439C242.654 120.934 245.297 124.393 247.926 127.817C250.352 126.741 252.777 125.648 255.217 124.573L256.205 112.062Z" fill="white"/>
<path d="M143.501 217.86L136.762 214.706C136.573 214.867 136.384 215.011 136.195 215.172C136.544 217.305 136.892 219.42 137.241 221.517C138.388 221.821 139.536 222.108 140.683 222.413L143.501 217.86Z" fill="white"/>
<path d="M273.967 352.604L273.023 334.932C272.631 334.645 272.254 334.358 271.876 334.054C269.044 336.617 266.226 339.162 263.438 341.671C263.946 344.485 264.469 347.299 264.977 350.112L273.967 352.604Z" fill="white"/>
<path d="M182.992 46.752C183.98 46.4115 184.967 46.0709 185.955 45.7304C185.432 45.0314 184.895 44.3504 184.372 43.6514C183.907 44.6909 183.457 45.7125 182.992 46.752Z" fill="white"/>
<path d="M129.816 145.954C130.267 145.631 130.731 145.291 131.182 144.968C130.848 144.699 130.514 144.449 130.165 144.18C130.049 144.771 129.933 145.363 129.816 145.954Z" fill="white"/>
<path d="M227.359 100.933C227.054 101.47 226.735 101.99 226.43 102.51C226.909 103.693 227.388 104.876 227.868 106.059C228.739 104.768 229.625 103.478 230.511 102.169C229.465 101.775 228.405 101.363 227.359 100.933Z" fill="white"/>
<path d="M339.879 65.2657C339.588 65.0148 339.312 64.7818 339.022 64.5488C338.397 64.9611 337.773 65.3733 337.148 65.7676C337.846 66.4486 338.557 67.1476 339.269 67.8466C339.472 66.9684 339.676 66.1081 339.879 65.2657Z" fill="white"/>
<path d="M305.164 262.775C304.975 262.47 304.787 262.183 304.612 261.896C304.002 262.022 303.407 262.165 302.797 262.309C303.233 263.115 303.668 263.922 304.104 264.746C304.467 264.083 304.816 263.42 305.164 262.775Z" fill="white"/>
<path d="M103.603 54.2793C103.24 54.4585 102.892 54.6557 102.529 54.8349C102.471 55.8027 102.398 56.7706 102.34 57.7384C103.284 57.3441 104.242 56.9498 105.201 56.5376C104.664 55.8027 104.126 55.05 103.603 54.2793Z" fill="white"/>
<path d="M240.318 287.329C239.708 288.87 239.098 290.412 238.488 291.935C240.159 294.731 241.829 297.545 243.499 300.359C245.3 296.541 247.115 292.688 248.945 288.817C246.07 288.315 243.194 287.831 240.318 287.329Z" fill="white"/>
<path d="M182.261 257.29C182.247 256.896 182.232 256.519 182.218 256.125C181.637 255.785 181.056 255.444 180.489 255.104C180.46 256.107 180.431 257.111 180.402 258.132C181.027 257.846 181.651 257.577 182.261 257.29Z" fill="white"/>
<path d="M233.303 313.101C233.303 312.653 233.318 312.187 233.318 311.739L232.722 311.184L230.5 313.352C231.139 313.621 231.764 313.89 232.403 314.159C232.708 313.818 232.998 313.46 233.303 313.101Z" fill="white"/>
<path d="M98.4575 222.771C98.1525 222.592 97.8475 222.395 97.5425 222.216L96.918 222.61L97.4989 225.782C97.9346 225.227 98.3704 224.689 98.8061 224.134C98.6899 223.685 98.5737 223.237 98.4575 222.771Z" fill="white"/>
<path d="M20.8908 79.1924C18.8575 81.9883 16.8241 84.7843 14.7617 87.6161C15.9963 90.9497 17.2453 94.3012 18.4798 97.6348C20.4115 94.5701 22.3287 91.5053 24.2313 88.4584L21.5734 79.1924H20.8908Z" fill="white"/>
<path d="M142.149 107.815C143.66 106.991 145.17 106.166 146.695 105.324C146.681 103.335 146.666 101.345 146.666 99.3379C145.156 100.324 143.66 101.309 142.164 102.295L141.801 107.6L142.149 107.815Z" fill="white"/>
<path d="M267.441 114.447C267.529 115.899 267.616 117.368 267.703 118.838C268.792 119.304 269.896 119.788 270.985 120.254C270.811 118.766 270.637 117.279 270.448 115.791L267.63 114.214L267.441 114.447Z" fill="white"/>
<path d="M237.468 74.0129C236.016 77.5079 234.563 81.0028 233.082 84.5336C235.057 87.5087 237.033 90.4839 238.993 93.4411C240.286 89.7132 241.564 85.9853 242.842 82.2932L238.165 73.7979L237.468 74.0129Z" fill="white"/>
<path d="M207.984 110.503C208.042 110.557 208.101 110.629 208.173 110.682L208.144 110.396C208.101 110.413 208.042 110.467 207.984 110.503Z" fill="white"/>
<path d="M126.622 15.7998C126.447 15.8177 126.273 15.8356 126.113 15.8536L126.505 16.2837C126.549 16.1224 126.578 15.9611 126.622 15.7998Z" fill="white"/>
<path d="M21.9492 153.572L23.8519 154.342C23.7647 153.267 23.6776 152.192 23.5759 151.116L21.9492 153.572Z" fill="white"/>
<path d="M147.277 18.99L145.898 13.3623L143.516 18.5778C144.765 18.7212 146.014 18.8467 147.277 18.99Z" fill="white"/>
<path d="M101.463 81.1814L103.438 77.1309L99.6328 78.1883C100.243 79.174 100.853 80.1777 101.463 81.1814Z" fill="white"/>
<path d="M375.651 190.044L375.477 190.761C375.636 190.725 375.782 190.707 375.941 190.671C375.84 190.474 375.738 190.259 375.651 190.044Z" fill="white"/>
<path d="M19.8593 231.732L19.4381 231.428C19.4236 231.589 19.4091 231.732 19.3945 231.894C19.5543 231.84 19.7141 231.786 19.8593 231.732Z" fill="white"/>
<path d="M358.122 278.35L357.613 278.672C357.729 278.78 357.846 278.905 357.947 279.013C358.005 278.78 358.063 278.565 358.122 278.35Z" fill="white"/>
<path d="M376.783 114.626L376.391 116.293L377.741 115.522L376.783 114.626Z" fill="white"/>
<path d="M75.1211 33.346L75.7601 34.3676L75.978 33.0234L75.1211 33.346Z" fill="white"/>
<path d="M333.293 1.03119L334.266 1.40757L333.83 0.170898L333.293 1.03119Z" fill="white"/>
<path d="M292.138 62.3271L291.789 63.0082L292.472 62.8827L292.138 62.3271Z" fill="white"/>
<path d="M187.361 331.347L187.535 330.917C187.448 330.899 187.361 330.899 187.273 330.881C187.302 331.024 187.332 331.186 187.361 331.347Z" fill="white"/>
<path d="M319.776 220.316L318.731 219.276C318.629 219.635 318.527 219.993 318.426 220.37C318.876 220.352 319.326 220.334 319.776 220.316Z" fill="white"/>
<path d="M385.786 88.0459L384.609 88.3506C384.755 88.6374 384.9 88.942 385.045 89.2288C385.307 88.8345 385.539 88.4402 385.786 88.0459Z" fill="white"/>
<path d="M349.914 126.114L350.96 127.1C351.047 126.741 351.149 126.383 351.236 126.024C350.8 126.06 350.35 126.078 349.914 126.114Z" fill="white"/>
<path d="M110.734 304.678C110.894 305.108 111.054 305.539 111.214 305.969L112.826 304.499L110.734 304.678Z" fill="white"/>
<path d="M212.952 43.7598C211.413 44.0465 209.859 44.3333 208.305 44.6201L211.122 54.0474L212.952 43.7598Z" fill="white"/>
<path d="M362.33 207.322C362.084 206.121 361.837 204.921 361.59 203.72L356.898 206.552L362.33 207.322Z" fill="white"/>
<path d="M140.696 36.5723C140.493 36.877 140.289 37.1816 140.086 37.4684L141.538 38.4183L140.696 36.5723Z" fill="white"/>
<path d="M223.453 345.471L225.966 351.349C225.69 349.234 225.428 347.137 225.152 345.022L223.453 345.471Z" fill="white"/>
<path d="M104.953 102.886L112.157 100.395C109.746 100.234 107.35 100.072 104.953 99.9111V102.886Z" fill="white"/>
<path d="M37.2734 167.981L39.2051 167.354C39.2487 166.744 39.2777 166.117 39.3213 165.508L37.2734 167.981Z" fill="white"/>
<path d="M151.938 353.338L152.882 351.402C152.591 350.972 152.301 350.524 151.996 350.094L151.938 353.338Z" fill="white"/>
<path d="M234.637 25.7285L236.365 29.1697C237.164 28.9546 237.963 28.7216 238.762 28.5065L234.637 25.7285Z" fill="white"/>
<path d="M186.129 240.98C190.297 243.203 194.48 245.443 198.692 247.683C196.528 242.988 194.364 238.274 192.185 233.578C190.152 236.051 188.133 238.525 186.129 240.98Z" fill="white"/>
<path d="M379.918 220.262C380.325 221.23 380.746 222.198 381.153 223.165C381.283 222.126 381.428 221.086 381.559 220.047C381.007 220.136 380.455 220.19 379.918 220.262Z" fill="white"/>
<path d="M226.654 194.578C225.26 196.406 223.866 198.234 222.457 200.08C224.389 199.668 226.32 199.256 228.252 198.844C227.729 197.41 227.192 195.994 226.654 194.578Z" fill="white"/>
<path d="M47.8149 54.5124C43.1091 52.057 38.3743 49.5837 33.625 47.1104C36.0941 52.3796 38.5776 57.6489 41.0467 62.9182C43.327 60.1043 45.5782 57.3084 47.8149 54.5124Z" fill="white"/>
<path d="M355.129 108.71L354.795 108.227C354.722 108.477 354.635 108.71 354.562 108.961L355.129 108.71Z" fill="white"/>
<path d="M318.465 241.895L317.957 241.429C317.928 241.751 317.885 242.074 317.855 242.397L318.465 241.895Z" fill="white"/>
<path d="M253.225 95.8965C253.167 96.004 253.109 96.0936 253.051 96.2012L253.443 96.5059C253.37 96.2908 253.298 96.0936 253.225 95.8965Z" fill="white"/>
<path d="M70.2406 342.817C70.2115 342.907 70.197 342.979 70.168 343.068L70.502 343.176C70.4149 343.05 70.3277 342.943 70.2406 342.817Z" fill="white"/>
<path d="M73.0317 235.389C73.0317 235.281 73.0171 235.174 73.0171 235.084L72.625 235.156C72.7557 235.227 72.8864 235.317 73.0317 235.389Z" fill="white"/>
<path d="M262.846 67.6504C262.802 67.7221 262.758 67.7938 262.715 67.8834L263.02 68.0985C262.962 67.9551 262.904 67.7938 262.846 67.6504Z" fill="white"/>
<path d="M371.308 143.75L370.945 144.7C371.294 144.682 371.628 144.682 371.976 144.664L371.308 143.75Z" fill="white"/>
<path d="M187.265 113.264L185.449 112.35C185.507 113.317 185.58 114.285 185.638 115.253L187.265 113.264Z" fill="white"/>
<path d="M281.332 21.5711H282.116C281.971 21.2127 281.84 20.8721 281.695 20.5137L281.332 21.5711Z" fill="white"/>
<path d="M365.585 228.435L365.542 228.363L365.527 228.417L365.585 228.435Z" fill="white"/>
<path d="M273.07 89.9818L273.012 89.9639V89.9997L273.07 89.9818Z" fill="white"/>
<path d="M40.0034 255.05L39.9453 255.139L40.0179 255.157L40.0034 255.05Z" fill="white"/>
<path d="M213.965 74.4247L218.554 78.3139C219.44 78.0092 220.341 77.7045 221.241 77.4178L222.955 66.915L213.965 74.4247Z" fill="white"/>
<path d="M356.531 324.34L361.629 323.82C362.123 322.96 362.617 322.117 363.111 321.257L359.378 312.564L356.531 324.34Z" fill="white"/>
<path d="M184.501 180.76L180.086 187.678C180.318 189.112 180.565 190.546 180.798 191.979L191.531 195.546L184.501 180.76Z" fill="white"/>
<path d="M230.354 180.258L232.678 178.627C232.765 178.089 232.838 177.552 232.925 177.014L229.613 173.896L230.354 180.258Z" fill="white"/>
<path d="M254.926 247.093L253.255 245.479C253.125 246.573 252.994 247.684 252.863 248.777L254.94 247.182L254.926 247.093Z" fill="white"/>
<path d="M233.285 129.502L227.867 130.165C229.203 132.495 230.554 134.825 231.89 137.173L233.459 129.663L233.285 129.502Z" fill="white"/>
<path d="M162.506 174.344L160.095 167.82C158.643 170.294 157.191 172.767 155.738 175.258L162.434 174.631L162.506 174.344Z" fill="white"/>
<path d="M297.163 221.821L289.785 222.753C291.615 225.926 293.445 229.098 295.29 232.27L297.41 222.036L297.163 221.821Z" fill="white"/>
<path d="M258.876 266.359C257.438 267.04 256.014 267.722 254.605 268.403L254.896 273.385L256.987 274.299C257.685 273.959 258.367 273.618 259.064 273.278L258.876 266.359Z" fill="white"/>
<path d="M333.137 304.015C334.705 310.772 336.245 317.475 337.784 324.142L352.744 324.518L356.186 315.306C355.402 312.044 354.618 308.8 353.833 305.52L333.137 304.015Z" fill="white"/>
<path d="M7.14844 113.837C11.1425 116.973 15.1221 120.074 19.0581 123.175L28.5276 113.192L26.5379 105.109C24.5917 103.621 22.6455 102.133 20.6992 100.628L7.14844 113.837Z" fill="white"/>
<path d="M335.013 234.062C333.198 239.708 331.411 245.3 329.625 250.874L339.719 260.839L346.008 256.753C346.865 254.01 347.707 251.268 348.564 248.526L335.013 234.062Z" fill="white"/>
<path d="M321.609 161.924C324.442 167.587 327.245 173.215 330.048 178.807L343.773 174.398L344.993 164.899C343.599 162.174 342.204 159.45 340.81 156.708L321.609 161.924Z" fill="white"/>
<path d="M24.3008 228.668C29.0356 229.976 33.7268 231.267 38.389 232.557L44.6924 218.9L40.495 211.982C38.2002 211.373 35.9054 210.781 33.6106 210.172L24.3008 228.668Z" fill="white"/>
<path d="M281.653 302.294C283.105 299.354 284.543 296.451 285.966 293.565L281.115 286.809L277.296 288.332C276.613 289.766 275.916 291.182 275.219 292.616L281.653 302.294Z" fill="white"/>
<path d="M355.489 57.667C354.023 57.7387 352.541 57.8104 351.074 57.8821C352.033 59.764 353.006 61.6638 353.964 63.5456L360.979 63.1513L355.489 57.667Z" fill="white"/>
<path d="M191.512 67.2205C191.541 66.6828 191.556 66.1451 191.585 65.6074C191.105 65.9121 190.641 66.1989 190.161 66.5036L190.074 69.0486L191.512 67.2205Z" fill="white"/>
<path d="M381.068 53.4917L379.732 51.5381C379.224 52.6314 378.715 53.7067 378.207 54.7821L380.996 53.6171L381.068 53.4917Z" fill="white"/>
<path d="M39.2921 26.0336L38.5078 32.7546C41.1512 32.0915 43.7945 31.4104 46.4379 30.7473L39.6116 25.9619L39.2921 26.0336Z" fill="white"/>
<path d="M45.1992 240.281L48.8012 243.669C49.4693 241.052 50.1374 238.435 50.8055 235.818L45.2718 239.959L45.1992 240.281Z" fill="white"/>
<path d="M121.583 165.437L113.871 167.193L115.091 169.433C116.268 169.648 117.429 169.863 118.606 170.079C119.608 168.519 120.596 166.978 121.583 165.437Z" fill="white"/>
<path d="M17.4323 275.464L18.3183 273.08L17.7228 273.062C17.5049 273.349 17.2725 273.636 17.0547 273.923C17.1999 274.443 17.3161 274.944 17.4323 275.464Z" fill="white"/>
<path d="M206.406 5.49422L203.574 4.34717L203.966 7.08934L206.406 5.49422Z" fill="white"/>
<path d="M349.55 288.924L344.438 299.104L351.801 299.642L349.55 288.924Z" fill="white"/>
<path d="M-4.85938 62.8649L9.2143 74.7656L10.5941 58.8682L-4.85938 62.8649Z" fill="white"/>
<path d="M21.3063 65.7685L22.3375 62.1123L19.7812 62.4887L21.3063 65.7685Z" fill="white"/>
<path d="M367.978 0.511719L365.117 -0.402344L365.597 2.53698L367.978 0.511719Z" fill="white"/>
<path d="M185.68 221.391L186.348 224.563L188.004 222.807L185.68 221.391Z" fill="white"/>
<path d="M92.5222 163.662C91.6943 162.891 90.881 162.12 90.0676 161.35L89.4141 161.744L89.5303 164.54L89.8788 164.719L92.5222 163.662Z" fill="white"/>
<path d="M134.086 165.634C132.126 170.365 130.179 175.097 128.219 179.811L130.02 182.84L139.213 180.187L139.576 178.251L134.086 165.634Z" fill="white"/>
<path d="M207.651 342.854C206.082 344.198 204.514 345.524 202.945 346.85L203.134 348.499L207.172 349.861L207.637 349.198L207.651 342.854Z" fill="white"/>
<path d="M281.258 179.184C282.478 180.062 283.683 180.922 284.889 181.782C285.005 181.675 285.121 181.549 285.237 181.442L284.99 180.241L282.115 178.216L281.258 179.184Z" fill="white"/>
<path d="M141.699 322.153C143.791 325.648 145.868 329.125 147.93 332.566C148.279 332.44 148.642 332.333 148.99 332.207L149.397 329.142L144.444 320.97L141.699 322.153Z" fill="white"/>
<path d="M84.7528 59.208L85.2176 58.6703C85.0578 58.5627 84.898 58.4552 84.7383 58.3477C84.7528 58.6344 84.7528 58.9212 84.7528 59.208Z" fill="white"/>
<path d="M267.736 186.567L267.751 184.094C267.199 184.309 266.661 184.506 266.109 184.721C266.661 185.33 267.199 185.958 267.736 186.567Z" fill="white"/>
<path d="M210.238 129.609L210.877 129.376C210.776 129.179 210.659 129 210.558 128.803C210.442 129.054 210.34 129.34 210.238 129.609Z" fill="white"/>
<path d="M12.435 340.542L11.4619 337.047C10.7793 337.674 10.0967 338.301 9.41406 338.929C10.4162 339.449 11.4329 340.004 12.435 340.542Z" fill="white"/>
<path d="M340.196 270.732L337.887 272.955C338.569 273.528 339.252 274.12 339.949 274.711C340.036 273.385 340.123 272.059 340.196 270.732Z" fill="white"/>
<path d="M97.4543 28.3096C95.5081 29.5462 93.5764 30.7829 91.6447 32.0196L91.4414 38.0954L99.3279 41.6978L100.199 40.7479L100.098 29.6538L97.4543 28.3096Z" fill="white"/>
<path d="M283.611 206.677C286.865 206.982 290.104 207.268 293.342 207.573L297.438 200.045L289.697 187.876L287.998 188.234L281.113 202.429L283.611 206.677Z" fill="white"/>
<path d="M336.236 16.9287C334.449 18.0758 332.663 19.2049 330.876 20.3519L330.688 25.9618L337.964 29.2775L338.763 28.3992L338.676 18.1654L336.236 16.9287Z" fill="white"/>
<path d="M365.803 38.7228L371.105 36.9305C369.521 35.6759 367.924 34.4034 366.312 33.1309L365.527 38.1851L365.803 38.7228Z" fill="white"/>
<path d="M338.34 336.204L340.185 331.921C338.878 332.333 337.571 332.727 336.234 333.14L337.992 336.115L338.34 336.204Z" fill="white"/>
<path d="M126.798 97.312L127.291 96.3621L126.086 95.9141L126.798 97.312Z" fill="white"/>
<path d="M176.484 208.308L177.283 208.273L176.964 207L176.484 208.308Z" fill="white"/>
<path d="M198.777 213.164L199.983 213.039L199.416 211.121L198.777 213.164Z" fill="white"/>
<path d="M189.672 281.181L189.222 280.966L189.164 281.772L189.672 281.181Z" fill="white"/>
<path d="M181.002 295.232C180.043 295.716 179.099 296.182 178.141 296.666C178.068 297.258 178.01 297.849 177.938 298.441L180.494 299.946L181.002 295.232Z" fill="white"/>
<path d="M175.872 15.6562C174.318 16.8212 172.749 17.9862 171.195 19.1512L173.04 19.8322L175.872 15.6562Z" fill="white"/>
<path d="M379.616 321.149C379.805 319.303 379.993 317.439 380.182 315.575L378.875 316.704L379.616 321.149Z" fill="white"/>
<path d="M51.1292 338.086C50.8969 337.566 50.6645 337.029 50.4321 336.509L50.2578 337.1L51.1292 338.086Z" fill="white"/>
<path d="M188.54 143.678L190.24 121.042L177.836 137.746L177.43 147.084C181.104 145.955 184.808 144.825 188.54 143.678Z" fill="white"/>
<path d="M297.219 201.855L300.501 224.169L308.794 204.006L307.153 194.901C303.871 197.195 300.559 199.525 297.219 201.855Z" fill="white"/>
<path d="M265.281 306.775L270.074 323.354C270.829 319.59 271.585 315.808 272.354 312.009L265.281 306.775Z" fill="white"/>
<path d="M301.2 41.3396L285.238 35.4609C287.577 38.9379 289.944 42.4329 292.326 45.9457L301.2 41.3396Z" fill="white"/>
<path d="M231.661 47.2715L228.422 53.0426C229.584 52.4691 230.76 51.8955 231.937 51.322L231.661 47.2715Z" fill="white"/>
<path d="M242.09 65.9833C242.772 66.7182 243.47 67.453 244.152 68.1699L244.501 68.2237C244.646 67.2379 244.791 66.2522 244.937 65.2664L244.777 63.9043L242.09 65.9833Z" fill="white"/>
<path d="M52.5926 88.3331C55.3957 86.2899 58.1988 84.2467 60.9729 82.2215L61.5248 80.8235C58.9831 79.1029 56.4269 77.3644 53.8707 75.6259L49.9492 74.7656L52.5926 88.3331Z" fill="white"/>
<path d="M300.91 332.35C304.89 331.526 308.855 330.701 312.776 329.895L313.909 328.586C311.6 325.199 309.276 321.794 306.938 318.388L302.726 315.252L300.91 332.35Z" fill="white"/>
<path d="M165.78 57.9902C164.443 58.6713 163.107 59.3524 161.785 60.0334L161.48 60.6069C162.512 61.5569 163.543 62.5247 164.574 63.4925L166.259 64.1736L165.78 57.9902Z" fill="white"/>
<path d="M22.9492 327.547C24.5904 329.59 26.2316 331.615 27.8583 333.641L28.7443 333.856C29.2671 331.365 29.79 328.873 30.3128 326.382L30.1095 322.869L22.9492 327.547Z" fill="white"/>
<path d="M359.25 342.925L361.153 346.76C363.142 346.921 365.118 347.065 367.093 347.208L375.633 328.049L363.593 333.981L359.25 342.925Z" fill="white"/>
<path d="M340.194 186.514L338.466 187.589C338.321 188.879 338.161 190.152 338.016 191.442L345.844 197.823L343.825 189.74L340.194 186.514Z" fill="white"/>
<path d="M118.462 236.877L113.945 247.899L114.003 247.971L119.61 245.229L121.483 239.996C120.481 238.938 119.464 237.916 118.462 236.877Z" fill="white"/>
<path d="M283.934 333.964L290.339 332.512L290.353 332.458L286.998 329.949L284.064 330.81C284.021 331.849 283.977 332.906 283.934 333.964Z" fill="white"/>
<path d="M24.6483 128.874L22.5859 135.864L22.615 135.9L25.8102 133.767L26.6381 130.469C25.97 129.931 25.3164 129.412 24.6483 128.874Z" fill="white"/>
<path d="M68.8329 192.105L85.0707 186.352L85.0852 186.191L75.8916 180.778L68.4844 183.915C68.6006 186.657 68.7168 189.381 68.8329 192.105Z" fill="white"/>
<path d="M358.001 80.9307C364.072 77.6866 370.114 74.4606 376.098 71.2703L375.866 66.5566L357.348 76.6113C357.551 78.0451 357.769 79.4968 358.001 80.9307Z" fill="white"/>
<path d="M311.732 79.8916C311.718 82.6696 311.718 85.4476 311.703 88.1898L312.923 88.7454L312.909 80.2321C312.516 80.1246 312.124 79.9991 311.732 79.8916Z" fill="white"/>
<path d="M58.8555 44.7983C60.09 48.3828 61.31 51.9673 62.53 55.4981L64.36 55.3727L60.5257 44.4219C59.9738 44.5473 59.4074 44.6728 58.8555 44.7983Z" fill="white"/>
<path d="M121.428 274.891C116.678 278.636 111.958 282.346 107.281 286.039L107.993 289.964L122.459 278.421C122.11 277.221 121.776 276.056 121.428 274.891Z" fill="white"/>
<path d="M84.8047 305.019C89.5831 307.887 94.3324 310.718 99.0381 313.532L101.231 310.898L86.5911 302.259C85.9956 303.191 85.4002 304.105 84.8047 305.019Z" fill="white"/>
<path d="M151.282 149.485L146.605 155.597C147.128 155.902 147.651 156.206 148.174 156.511L152.27 152.478C151.936 151.475 151.602 150.489 151.282 149.485Z" fill="white"/>
<path d="M389.272 276.468L384.493 269.389C384.159 270.052 383.825 270.697 383.477 271.36L386.498 277.382C387.427 277.078 388.342 276.773 389.272 276.468Z" fill="white"/>
<path d="M342.711 147.191L343.408 141.814C343.045 141.886 342.667 141.958 342.304 142.03L341.316 146.026C341.767 146.421 342.231 146.815 342.711 147.191Z" fill="white"/>
<path d="M116.57 124.393L129.816 120.432C129.221 119.214 128.611 118.013 128.001 116.794L117.572 118.066C117.238 120.163 116.904 122.278 116.57 124.393Z" fill="white"/>
</g>
</g>
</svg>
