<svg width="24" height="24" viewBox="0 0 24 24" fill="none" xmlns="http://www.w3.org/2000/svg">
<path d="M20.6969 6.28896C19.8413 3.52464 17.6187 1.28378 14.8966 0.440737C11.9978 -0.456966 8.97569 0.0303462 6.60531 1.77771C5.46953 2.61494 4.52706 3.71927 3.87986 4.97116C3.21095 6.26505 2.85742 7.72174 2.85742 9.18382C2.85742 11.1783 3.48831 13.0736 4.68194 14.665L12.0003 24L19.3097 14.6769L19.3188 14.665C21.105 12.2833 21.6074 9.23032 20.6969 6.28896ZM18.1978 13.8152L12.0003 21.721L5.80281 13.8152C4.79617 12.4704 4.26405 10.869 4.26405 9.18382C4.26405 6.72133 5.4513 4.37594 7.43997 2.90997C9.44687 1.43055 12.013 1.02035 14.4805 1.78441C16.7657 2.49213 18.6329 4.37753 19.3533 6.70483C20.128 9.20805 19.7069 11.7993 18.1978 13.8152Z" fill="#CDB294"/>
<path d="M12.0012 4.26074C9.28664 4.26074 7.07812 6.46926 7.07812 9.18384C7.07812 11.8984 9.28664 14.1069 12.0012 14.1069C14.7158 14.1069 16.9243 11.8984 16.9243 9.18384C16.9243 6.46926 14.7158 4.26074 12.0012 4.26074ZM12.0012 12.7004C10.0622 12.7004 8.4847 11.1229 8.4847 9.18384C8.4847 7.24485 10.0622 5.66732 12.0012 5.66732C13.9402 5.66732 15.5177 7.2448 15.5177 9.18384C15.5177 11.1228 13.9402 12.7004 12.0012 12.7004Z" fill="#CDB294"/>
</svg>
