<svg width="40" height="40" viewBox="0 0 40 40" fill="none" xmlns="http://www.w3.org/2000/svg">
<g clip-path="url(#clip0)">
<path d="M12.8022 18.436C11.817 18.1523 10.8318 18.0084 9.87348 18.0084C8.39362 18.0084 7.15879 18.3466 6.2013 18.7607C7.12438 15.3814 9.34187 9.55039 13.7592 8.89374C14.1683 8.8329 14.5036 8.53709 14.6152 8.1389L15.5806 4.68571C15.662 4.39367 15.6138 4.08108 15.4472 3.82765C15.2806 3.57422 15.0129 3.40513 14.7129 3.36401C14.3869 3.31953 14.0546 3.29688 13.7252 3.29688C8.42299 3.29688 3.17192 8.83122 0.956109 16.7555C-0.344595 21.4045 -0.725994 28.394 2.47793 32.7934C4.27081 35.2551 6.88648 36.5697 10.2524 36.701C10.2662 36.7014 10.2796 36.7018 10.2935 36.7018C14.4465 36.7018 18.1292 33.9049 19.2495 29.9007C19.9187 27.507 19.6162 24.9966 18.3969 22.8303C17.1906 20.6883 15.2038 19.127 12.8022 18.436Z" fill="#CDB294"/>
<path d="M38.7988 22.8307C37.5925 20.6883 35.6058 19.127 33.2041 18.436C32.219 18.1523 31.2338 18.0084 30.2759 18.0084C28.796 18.0084 27.5608 18.3466 26.6033 18.7607C27.5263 15.3814 29.7438 9.55039 34.1616 8.89374C34.5707 8.8329 34.9055 8.53709 35.0176 8.1389L35.983 4.68571C36.0644 4.39367 36.0162 4.08108 35.8496 3.82765C35.6834 3.57422 35.4157 3.40513 35.1153 3.36401C34.7897 3.31953 34.4574 3.29688 34.1276 3.29688C28.8254 3.29688 23.5743 8.83122 21.3581 16.7555C20.0578 21.4045 19.6764 28.394 22.8807 32.7942C24.6732 35.2555 27.2893 36.5705 30.6547 36.7014C30.6686 36.7018 30.682 36.7022 30.6963 36.7022C34.8489 36.7022 38.532 33.9053 39.6523 29.9012C40.3207 27.5074 40.0177 24.9966 38.7988 22.8307Z" fill="#CDB294"/>
</g>
<defs>
<clipPath id="clip0">
<rect width="40" height="40" fill="white"/>
</clipPath>
</defs>
</svg>
